<svg xmlns="http://www.w3.org/2000/svg" width="75" height="75" viewBox="351.999 3936.95 75 75"><g data-name="Group 845"><path d="M352 3974.4a37.5 37.5 0 1 1 0 .1z" fill="#fff" fill-rule="evenodd" data-name="Ellipse 31"/><g data-name="Group 204"><g data-name="Group 203" transform="translate(354.242 3939.297)" clip-path="url(&quot;#a&quot;)"><path d="M35.087 0C15.71 0 0 15.709 0 35.087c0 19.378 15.71 35.087 35.087 35.087 19.378 0 35.087-15.709 35.087-35.087C70.174 15.709 54.465 0 35.087 0m9.264 21.029s-3.59-.283-5.004.239c-2.338.863-2.394 2.883-2.394 4.808v3.933h7.148l-1.045 7.523h-6.103v18.57H28.88v-18.57h-6.712V30.01h6.713v-6.38c0-6.756 5.2-9.204 8.3-9.498 3.101-.293 7.17.588 7.17.588v6.31Z" fill="#353ea3" fill-rule="evenodd" data-name="Path 243"/></g></g></g><defs><clipPath id="a"><path d="M0 0h70.174v70.174H0V0z" data-name="Rectangle 421"/></clipPath></defs></svg>