<svg id="Group_904" data-name="Group 904" xmlns="http://www.w3.org/2000/svg" xmlns:xlink="http://www.w3.org/1999/xlink" width="25.5" height="30.166" viewBox="0 0 25.5 30.166">
  <defs>
    <clipPath id="clip-path">
      <rect id="Rectangle_850" data-name="Rectangle 850" width="25.5" height="30.166" fill="#353ea3"/>
    </clipPath>
  </defs>
  <g id="Group_903" data-name="Group 903" clip-path="url(#clip-path)">
    <path id="Path_359" data-name="Path 359" d="M213.693,30.165H201.9a.956.956,0,0,1-.634-1q.014-14.1.007-28.193c0-.706.275-.975.99-.975h11.054c.79,0,1.053.26,1.053,1.04q0,14.035.007,28.07a.955.955,0,0,1-.682,1.056M203.244,4.525c0,.317,0,.635,0,.952a.783.783,0,0,0,.821.838q.951.022,1.9,0a.773.773,0,0,0,.817-.783c.022-.665.022-1.331,0-2a.761.761,0,0,0-.791-.771q-.982-.016-1.965,0a.766.766,0,0,0-.784.806c-.008.317,0,.635,0,.952m5.765.014c0,.317-.006.635,0,.952a.765.765,0,0,0,.771.82q1,.032,1.995,0a.745.745,0,0,0,.765-.762q.03-1.012,0-2.025a.751.751,0,0,0-.8-.758q-.967-.014-1.934,0a.765.765,0,0,0-.8.791c-.01.327,0,.655,0,.982M205.1,16.409c.328,0,.655.008.983,0a.753.753,0,0,0,.785-.8c.007-.563.006-1.126,0-1.689a.745.745,0,0,0-.743-.811c-.685-.025-1.372-.023-2.057,0a.744.744,0,0,0-.754.8c-.007.573-.008,1.147,0,1.72a.747.747,0,0,0,.772.78c.337.011.676,0,1.013,0m-.016-4.975v0c.328,0,.655.007.983,0a.755.755,0,0,0,.8-.814c.006-.553,0-1.106,0-1.659a.749.749,0,0,0-.757-.828c-.685-.023-1.372-.024-2.057,0a.735.735,0,0,0-.739.781c-.008.584-.009,1.167,0,1.751a.738.738,0,0,0,.755.763c.337.013.675,0,1.013,0M205,21.312c.328,0,.656.01.983,0a.772.772,0,0,0,.811-.814q.016-.844,0-1.689a.755.755,0,0,0-.81-.808q-.967-.014-1.935,0a.748.748,0,0,0-.8.807c-.005.553,0,1.106,0,1.659a.772.772,0,0,0,.834.847c.307.009.614,0,.921,0m.108,1.345c-.338,0-.676-.01-1.013,0a.747.747,0,0,0-.777.805q-.009.845,0,1.689a.743.743,0,0,0,.751.8c.685.024,1.372.024,2.057,0a.741.741,0,0,0,.746-.806q.009-.844,0-1.689a.749.749,0,0,0-.781-.8c-.327-.012-.655,0-.982,0m5.751,3.309h0c.327,0,.656.013.982,0a.765.765,0,0,0,.795-.827c.007-.563.009-1.126,0-1.689a.735.735,0,0,0-.766-.784q-1.013-.022-2.026,0a.732.732,0,0,0-.758.787c-.006.553,0,1.106,0,1.658a.767.767,0,0,0,.823.856c.317.012.635,0,.952,0m-.082-14.532v0c.327,0,.655.008.982,0a.742.742,0,0,0,.792-.788c.012-.573.011-1.146,0-1.719a.726.726,0,0,0-.727-.789c-.695-.027-1.392-.027-2.086,0a.721.721,0,0,0-.727.785c-.007.583-.008,1.167,0,1.75a.727.727,0,0,0,.752.759c.337.013.675,0,1.013,0m-.006,4.975c.327,0,.655.007.982,0a.743.743,0,0,0,.8-.783c.013-.573.012-1.146,0-1.719a.749.749,0,0,0-.782-.8c-.654-.017-1.31-.016-1.964,0a.752.752,0,0,0-.794.819q-.008.829,0,1.658a.753.753,0,0,0,.84.832c.307.005.614,0,.921,0m.008,1.513c-.338,0-.676-.012-1.013,0a.728.728,0,0,0-.755.787q-.01.859,0,1.719a.712.712,0,0,0,.725.783c.695.025,1.391.024,2.086,0a.71.71,0,0,0,.727-.753q.022-.89,0-1.78a.724.724,0,0,0-.757-.756c-.337-.015-.675,0-1.013,0" transform="translate(-188.876 0.001)" fill="#353ea3"/>
    <path id="Path_360" data-name="Path 360" d="M0,197.195V179.316a1.062,1.062,0,0,1,1.042-.611q5.112,0,10.224,0a.91.91,0,0,1,1.047,1.048q0,8.506,0,17.011c0,.718-.322,1.04-1.052,1.041q-5.1,0-10.193,0A1.066,1.066,0,0,1,0,197.195m8.985-8.3c.338,0,.675.01,1.013,0a.786.786,0,0,0,.813-.817q.014-.844,0-1.688a.772.772,0,0,0-.817-.806q-1-.012-1.995,0a.77.77,0,0,0-.811.81c-.008.552-.007,1.1,0,1.657a.788.788,0,0,0,.816.844c.327.012.655,0,.982,0m0-4.9c.337,0,.675.007,1.012,0a.773.773,0,0,0,.809-.813q.014-.844,0-1.688a.773.773,0,0,0-.79-.805c-.685-.016-1.371-.017-2.055,0a.77.77,0,0,0-.777.816c-.007.563-.008,1.125,0,1.688a.767.767,0,0,0,.789.8c.337.01.675,0,1.013,0M3.563,185.58h0c-.327,0-.655,0-.982,0a.784.784,0,0,0-.845.814q-.021.843,0,1.687a.777.777,0,0,0,.79.809q1.027.025,2.055,0a.756.756,0,0,0,.774-.784q.018-.874,0-1.749a.756.756,0,0,0-.781-.774c-.337-.01-.675,0-1.012,0m-.024-1.587c.337,0,.675.006,1.012,0a.765.765,0,0,0,.807-.811q.014-.843,0-1.687a.769.769,0,0,0-.813-.81q-1-.018-1.994,0a.775.775,0,0,0-.812.785c-.018.582-.019,1.166,0,1.748a.768.768,0,0,0,.817.774c.327.007.654,0,.982,0m.018,6.246c-.337,0-.675-.008-1.012,0a.765.765,0,0,0-.806.785c-.018.572-.016,1.145,0,1.718a.76.76,0,0,0,.766.8q1.042.032,2.085,0a.75.75,0,0,0,.768-.787q.018-.859,0-1.718a.758.758,0,0,0-.789-.8c-.337-.011-.675,0-1.012,0M9,193.549H9c.337,0,.675.013,1.012,0a.78.78,0,0,0,.8-.829q.012-.828,0-1.657a.767.767,0,0,0-.8-.817q-1.012-.017-2.024,0a.765.765,0,0,0-.8.823c-.006.542-.005,1.084,0,1.626a.787.787,0,0,0,.833.856c.327.011.654,0,.982,0" transform="translate(0 -167.704)" fill="#353ea3"/>
  </g>
</svg>
