<svg xmlns="http://www.w3.org/2000/svg" width="331.243" height="98.747" viewBox="351.758 3822.253 331.243 98.747"><g data-name="Footer Logo" transform="translate(351.758 3822.253)" clip-path="url(&quot;#a&quot;)"><path d="M36.352 97.526H22.205L11.364 80.683v16.843H0V53.733h17.683c2.435 0 4.56.358 6.378 1.074 1.816.717 3.313 1.695 4.493 2.934a12.386 12.386 0 0 1 2.667 4.297c.598 1.627.899 3.37.899 5.228 0 3.331-.803 6.031-2.406 8.103-1.605 2.072-3.973 3.475-7.103 4.21l13.741 17.947ZM11.364 73.307h2.145c2.24 0 3.962-.465 5.16-1.395 1.198-.928 1.797-2.264 1.797-4.007 0-1.742-.599-3.079-1.797-4.007-1.198-.93-2.92-1.395-5.16-1.395h-2.145v10.804Z" fill="#fff" fill-rule="evenodd" data-name="Path 330"/><path d="M60.182 63.374h-13.51v7.319h12.755v9.641H46.672v7.551h13.51v9.642H35.309V53.733h24.873v9.641Z" fill="#fff" fill-rule="evenodd" data-name="Path 331"/><path d="m60.587 97.527 7.42-43.794h11.249l8.754 23.349 8.696-23.35h11.248l7.422 43.795H104.07l-3.77-25.208-10.319 25.208H85.46l-9.798-25.208-3.769 25.208H60.587Z" fill="#fff" fill-rule="evenodd" data-name="Path 332"/><path d="M114.795 75.63c0-3.252.598-6.281 1.797-9.09 1.198-2.807 2.86-5.256 4.986-7.347 2.126-2.09 4.667-3.726 7.624-4.908 2.957-1.18 6.214-1.771 9.77-1.771 3.516 0 6.763.59 9.74 1.771 2.976 1.182 5.537 2.817 7.682 4.908a22.47 22.47 0 0 1 5.015 7.347c1.197 2.809 1.797 5.838 1.797 9.09 0 3.253-.6 6.283-1.797 9.09a22.456 22.456 0 0 1-5.015 7.348c-2.145 2.09-4.706 3.727-7.682 4.908-2.977 1.18-6.224 1.771-9.74 1.771-3.556 0-6.813-.59-9.77-1.771s-5.498-2.817-7.624-4.908c-2.126-2.091-3.788-4.54-4.986-7.348-1.199-2.807-1.797-5.837-1.797-9.09m11.885 0c0 1.743.328 3.35.986 4.821a12.172 12.172 0 0 0 2.667 3.834 12.037 12.037 0 0 0 3.913 2.525c1.488.601 3.063.901 4.726.901 1.66 0 3.236-.3 4.725-.9a12.393 12.393 0 0 0 3.942-2.526 11.959 11.959 0 0 0 2.696-3.834c.656-1.471.986-3.078.986-4.82 0-1.743-.33-3.35-.986-4.822a11.994 11.994 0 0 0-2.696-3.834 12.52 12.52 0 0 0-8.668-3.427c-1.662 0-3.237.301-4.725.901a12.09 12.09 0 0 0-3.913 2.526 12.208 12.208 0 0 0-2.667 3.834c-.658 1.473-.986 3.079-.986 4.821" fill="#fff" fill-rule="evenodd" data-name="Path 333"/><path d="m170.338 53.733 10.551 26.66 10.61-26.66h12.35l-18.437 43.794h-9.045l-18.379-43.794h12.35Z" fill="#fff" fill-rule="evenodd" data-name="Path 334"/><path d="M225.937 89.919h-16.234l-2.609 7.607h-12.117l16.64-43.793h12.407l16.64 43.793h-12.118l-2.609-7.607Zm-3.015-8.656-5.102-14.577-5.102 14.577h10.204Z" fill="#fff" fill-rule="evenodd" data-name="Path 335"/><path d="M324.923 64.943c-1.237-1.007-2.473-1.752-3.71-2.236-1.238-.484-2.435-.726-3.595-.726-1.468 0-2.667.348-3.594 1.045-.928.697-1.392 1.607-1.392 2.73 0 .776.231 1.414.696 1.917.464.503 1.073.939 1.826 1.307a15.44 15.44 0 0 0 2.551.957c.947.272 1.885.564 2.812.872 3.71 1.24 6.426 2.895 8.146 4.967 1.72 2.071 2.58 4.772 2.58 8.102 0 2.246-.377 4.279-1.13 6.099a12.712 12.712 0 0 1-3.305 4.675c-1.45 1.298-3.228 2.305-5.334 3.02-2.107.716-4.493 1.075-7.16 1.075-5.528 0-10.649-1.646-15.365-4.937l4.87-9.177c1.7 1.51 3.382 2.634 5.045 3.369 1.66.736 3.304 1.103 4.928 1.103 1.854 0 3.236-.426 4.145-1.277.908-.852 1.363-1.82 1.363-2.905 0-.658-.116-1.229-.348-1.713-.232-.484-.62-.93-1.16-1.336-.542-.407-1.246-.784-2.116-1.132-.87-.35-1.923-.735-3.16-1.162a63.193 63.193 0 0 1-4.32-1.54 13.566 13.566 0 0 1-3.768-2.235c-1.101-.93-1.99-2.101-2.667-3.515-.676-1.413-1.014-3.203-1.014-5.372 0-2.168.357-4.134 1.072-5.895.715-1.762 1.72-3.272 3.015-4.532 1.294-1.256 2.879-2.235 4.754-2.932 1.874-.698 3.972-1.045 6.291-1.045 2.164 0 4.426.3 6.783.9a29.95 29.95 0 0 1 6.784 2.642l-4.523 8.887Z" fill="#fff" fill-rule="evenodd" data-name="Path 336"/><path d="M37.086 47.03H22.94L12.098 30.187V47.03H.734V3.236h17.684c2.435 0 4.56.359 6.377 1.074 1.816.717 3.314 1.695 4.493 2.934a12.386 12.386 0 0 1 2.667 4.297c.599 1.628.899 3.37.899 5.229 0 3.33-.803 6.03-2.406 8.102-1.604 2.072-3.972 3.475-7.102 4.21l13.74 17.948ZM12.098 22.81h2.145c2.241 0 3.962-.464 5.16-1.395 1.198-.928 1.797-2.264 1.797-4.006 0-1.743-.599-3.08-1.797-4.008-1.198-.93-2.919-1.395-5.16-1.395h-2.145V22.81Z" fill="#fff" fill-rule="evenodd" data-name="Path 337"/><path d="M60.916 12.878h-13.51v7.318h12.756v9.642H47.407v7.55h13.51v9.642H36.042V3.236h24.873v9.642Z" fill="#fff" fill-rule="evenodd" data-name="Path 338"/><path d="M87.295 14.446c-1.238-1.006-2.474-1.752-3.71-2.236-1.238-.484-2.436-.726-3.595-.726-1.469 0-2.667.349-3.595 1.046-.927.697-1.391 1.607-1.391 2.73 0 .775.23 1.414.695 1.916.464.504 1.073.94 1.827 1.307a15.44 15.44 0 0 0 2.55.958c.948.271 1.885.563 2.813.87 3.71 1.242 6.426 2.896 8.146 4.968 1.719 2.071 2.58 4.772 2.58 8.102 0 2.246-.377 4.279-1.131 6.099a12.712 12.712 0 0 1-3.305 4.675c-1.45 1.298-3.228 2.305-5.334 3.02-2.106.716-4.493 1.075-7.16 1.075-5.528 0-10.649-1.645-15.364-4.937l4.87-9.177c1.7 1.51 3.381 2.634 5.044 3.369 1.661.736 3.305 1.104 4.928 1.104 1.855 0 3.237-.426 4.146-1.278.907-.852 1.362-1.82 1.362-2.904 0-.659-.116-1.23-.348-1.714-.232-.484-.619-.93-1.16-1.336-.541-.407-1.246-.784-2.115-1.132a69.48 69.48 0 0 0-3.16-1.162 63.207 63.207 0 0 1-4.32-1.54 13.567 13.567 0 0 1-3.768-2.235c-1.102-.93-1.992-2.1-2.667-3.515-.677-1.413-1.015-3.203-1.015-5.372 0-2.168.357-4.133 1.073-5.895.714-1.762 1.72-3.272 3.015-4.531 1.294-1.257 2.878-2.236 4.754-2.933 1.874-.698 3.971-1.045 6.29-1.045 2.164 0 4.426.3 6.784.9a29.95 29.95 0 0 1 6.783 2.642l-4.522 8.887Z" fill="#fff" fill-rule="evenodd" data-name="Path 339"/><path d="M126.43 17.873c-2.63-3.213-5.876-4.821-9.74-4.821-1.702 0-3.276.31-4.726.93-1.45.62-2.696 1.461-3.74 2.526-1.043 1.066-1.865 2.333-2.463 3.804-.6 1.473-.899 3.06-.899 4.763 0 1.743.299 3.35.899 4.82a11.69 11.69 0 0 0 2.493 3.835 11.663 11.663 0 0 0 3.74 2.555c1.429.62 2.976.93 4.638.93 3.632 0 6.898-1.548 9.798-4.647v13.475l-1.16.407c-1.74.618-3.362 1.074-4.87 1.365-1.507.29-2.996.435-4.464.435-3.015 0-5.905-.572-8.668-1.713a22.643 22.643 0 0 1-7.305-4.821c-2.107-2.072-3.797-4.531-5.073-7.376-1.275-2.847-1.913-5.954-1.913-9.324 0-3.367.627-6.455 1.884-9.263 1.255-2.806 2.937-5.227 5.044-7.26 2.107-2.033 4.551-3.62 7.334-4.763a22.846 22.846 0 0 1 8.755-1.713c1.74 0 3.45.184 5.13.55 1.682.37 3.45.94 5.306 1.714v13.592Z" fill="#fff" fill-rule="evenodd" data-name="Path 340"/><path d="M139.184 3.236V27.05c0 1.277.048 2.584.146 3.92.096 1.336.385 2.546.869 3.63.482 1.084 1.247 1.965 2.29 2.642 1.043.678 2.512 1.016 4.406 1.016 1.894 0 3.353-.338 4.377-1.016a6.298 6.298 0 0 0 2.29-2.642c.502-1.084.803-2.294.9-3.63.096-1.336.144-2.643.144-3.92V3.236h11.306v25.382c0 6.815-1.556 11.79-4.667 14.928-3.112 3.136-7.895 4.704-14.35 4.704s-11.248-1.568-14.378-4.704c-3.131-3.138-4.696-8.113-4.696-14.928V3.236h11.363Z" fill="#fff" fill-rule="evenodd" data-name="Path 341"/><path d="M194.147 12.878h-13.51v7.318h12.755v9.642h-12.754v7.55h13.509v9.642h-24.873V3.236h24.873v9.642Z" fill="#fff" fill-rule="evenodd" data-name="Path 342"/><path d="M240.71 82.675c.202-5.325 2.399-9.224 6.664-11.907.698-.44.918-.8.705-1.645-4.48-17.7-8.925-35.406-13.375-53.115-.546-2.173-1.099-4.344-1.605-6.527-.164-.708-.462-1.002-1.238-1.053-2.82-.192-5.635-.456-8.445-.748-1.936-.201-3.048-1.494-2.897-3.19.119-1.313 1.652-2.678 3.46-2.447 3.602.456 7.236.665 10.856.972 1.73.147 2.674.914 3.099 2.604 3.942 15.675 7.88 31.352 11.816 47.03 1.27 5.058 2.548 10.115 3.784 15.183.184.756.53.957 1.283.974 4.48.11 8.036 2.064 10.716 5.62.455.604.81.833 1.613.626 12.854-3.32 25.719-6.599 38.581-9.887 2.178-.557 3.948.91 3.76 3.116-.1 1.164-.758 1.956-1.91 2.251a73920.297 73920.297 0 0 1-37.841 9.69c-1.629.417-1.631.406-1.574 2.03.24 6.817-5.127 13.115-11.826 13.877-7.378.84-14.018-3.871-15.311-10.883-.172-.936-.234-1.892-.316-2.57m23.062-.007c.112-5.105-3.935-9.385-8.992-9.509-5.194-.127-9.522 3.898-9.646 8.97-.13 5.35 3.827 9.572 9.105 9.716 5.2.14 9.417-3.92 9.533-9.177" fill="#fff" fill-rule="evenodd" data-name="Path 343"/><path d="M254.601 98.245c-7.665 0-14.176-5.158-15.554-12.633-.137-.74-.21-1.476-.269-2.067-.023-.227-.044-.439-.066-.628l-.02-.159.007-.16c.222-5.836 2.688-10.33 7.332-13.362a27408.46 27408.46 0 0 1-11.957-47.475l-1.494-5.949a348.912 348.912 0 0 1-1.331-5.404c-2.403-.173-4.96-.403-8.04-.722-3.018-.314-4.948-2.524-4.694-5.373.106-1.176.75-2.32 1.772-3.143A5.268 5.268 0 0 1 224.232.04c2.54.322 5.16.524 7.696.72 1.026.08 2.053.159 3.078.245 2.606.22 4.247 1.606 4.88 4.12 3.943 15.676 7.881 31.354 11.817 47.031l.508 2.027c1.059 4.206 2.116 8.413 3.147 12.626 4.723.243 8.631 2.326 11.627 6.2 10.33-2.666 20.607-5.292 30.885-7.918l7.36-1.88c1.695-.434 3.365-.083 4.59.957 1.207 1.024 1.818 2.586 1.674 4.283-.172 2.022-1.45 3.53-3.417 4.035a89767.718 89767.718 0 0 1-37.843 9.69l-.06.015c.274 7.906-5.83 15.056-13.61 15.941-.66.076-1.316.112-1.963.112m-11.873-15.643c.019.17.037.352.056.544.054.542.116 1.158.222 1.733 1.106 5.996 6.735 9.97 13.104 9.247 5.645-.643 10.243-6.047 10.041-11.803-.09-2.57.536-3.401 3.052-4.045 12.65-3.237 25.263-6.466 37.876-9.699.316-.08.376-.15.403-.469.033-.385-.061-.691-.264-.864-.22-.185-.582-.23-.992-.126L298.865 69a11875.797 11875.797 0 0 0-31.215 8.006c-2.254.583-3.36-.883-3.723-1.364-2.374-3.15-5.37-4.726-9.157-4.819-2.142-.051-2.918-1.394-3.191-2.511a1885.94 1885.94 0 0 0-3.271-13.143l-.51-2.028c-3.936-15.677-7.874-31.355-11.815-47.03-.201-.796-.377-1.006-1.316-1.085a384.907 384.907 0 0 0-3.048-.243c-2.584-.2-5.255-.406-7.892-.74-.686-.089-1.165.446-1.203.638-.02.231-.077.87 1.1.993 3.262.338 5.923.575 8.374.742 1.633.11 2.693 1.013 3.063 2.609.448 1.932.943 3.9 1.422 5.8l1.496 5.951c4.007 15.954 8.016 31.906 12.051 47.852.623 2.459-1.039 3.504-1.585 3.848-3.686 2.32-5.506 5.54-5.717 10.126m11.776 11.265c-.106 0-.213-.002-.319-.005-6.361-.173-11.221-5.347-11.064-11.78.073-3.001 1.34-5.794 3.565-7.864 2.211-2.056 5.08-3.165 8.143-3.073 6.178.15 11.093 5.341 10.955 11.569-.068 3.1-1.317 5.962-3.515 8.059a11.17 11.17 0 0 1-7.765 3.094m.035-18.692a7.467 7.467 0 0 0-5.115 2c-1.422 1.322-2.232 3.1-2.278 5.006-.104 4.247 2.97 7.536 7.147 7.649a7.159 7.159 0 0 0 5.2-1.978c1.417-1.351 2.221-3.208 2.266-5.228.088-4.009-3.065-7.35-7.029-7.447a7.467 7.467 0 0 0-.19-.002" fill="#fff" fill-rule="evenodd" data-name="Path 344"/><path d="m253.345 48.032 34.7-8.823 6.034 23.787c-1.322.36-2.603.727-3.895 1.056-7.35 1.87-14.708 3.715-22.052 5.611-.884.228-1.43.138-2.072-.6-1.969-2.264-4.488-3.62-7.463-4.09-.544-.085-1.023-.121-1.202-.846-1.309-5.308-2.662-10.604-4.05-16.095" fill="#fff" fill-rule="evenodd" data-name="Path 345"/><path d="M252.749 45.69c-1.548-6.109-3.05-12.04-4.58-18.07 8.363-2.128 16.591-4.223 24.958-6.351l4.58 18.076-24.958 6.346" fill="#fff" fill-rule="evenodd" data-name="Path 346"/><path d="m244.238 11.976 18.549-4.716 3.403 13.424-18.547 4.721-3.405-13.429" fill="#fff" fill-rule="evenodd" data-name="Path 347"/><path d="M248.877 82.524c.013 3.097 2.556 5.653 5.588 5.618 3.064-.034 5.618-2.595 5.624-5.639.007-3.048-2.565-5.588-5.642-5.574-3.136.015-5.583 2.473-5.57 5.595" fill="#fff" fill-rule="evenodd" data-name="Path 348"/><path d="M248.877 82.524c-.013-3.122 2.434-5.58 5.57-5.595 3.077-.014 5.649 2.526 5.642 5.574-.006 3.044-2.56 5.605-5.624 5.64-3.032.034-5.575-2.522-5.588-5.619" fill="#fff" fill-rule="evenodd" data-name="Path 349"/></g><defs><clipPath id="a"><path d="M0 0h331.242v98.747H0V0z" data-name="Rectangle 448"/></clipPath></defs></svg>