<svg id="Group_902" data-name="Group 902" xmlns="http://www.w3.org/2000/svg" xmlns:xlink="http://www.w3.org/1999/xlink" width="26.756" height="24" viewBox="0 0 26.756 24">
  <defs>
    <clipPath id="clip-path">
      <rect id="Rectangle_849" data-name="Rectangle 849" width="26.756" height="24" fill="#353ea3"/>
    </clipPath>
  </defs>
  <g id="Group_901" data-name="Group 901" clip-path="url(#clip-path)">
    <path id="Path_357" data-name="Path 357" d="M26.69,27.963c.233.2.462.4.689.593q4.617,4,9.237,8a.459.459,0,0,1,.175.388q-.006,4.089,0,8.179a1.267,1.267,0,0,1-1.336,1.335H17.944a1.273,1.273,0,0,1-1.368-1.377c0-2.695,0-5.389,0-8.084a.575.575,0,0,1,.226-.485q4.877-4.211,9.747-8.431c.041-.036.085-.068.146-.115m1.467,10.7c-.247,0-.494,0-.741,0a.532.532,0,0,0-.587.574q-.01.741,0,1.482a.526.526,0,0,0,.548.568c.517.015,1.036.012,1.554,0a.516.516,0,0,0,.525-.539c.008-.518.008-1.036,0-1.554a.516.516,0,0,0-.556-.528c-.247,0-.494,0-.741,0m-2.938,0h-.359c-.127,0-.255,0-.383,0a.523.523,0,0,0-.568.565c-.006.5-.007,1,0,1.506a.513.513,0,0,0,.513.55q.788.025,1.578,0a.52.52,0,0,0,.535-.532q.017-.777,0-1.554a.522.522,0,0,0-.575-.536c-.247,0-.494,0-.741,0m0-.308c.247,0,.494,0,.741,0a.525.525,0,0,0,.573-.563q.013-.752,0-1.505a.528.528,0,0,0-.566-.547c-.5,0-1,0-1.506,0a.516.516,0,0,0-.557.55q-.01.765,0,1.529a.512.512,0,0,0,.526.533c.263.01.526,0,.789,0m2.916,0v0c.255,0,.51,0,.764,0a.516.516,0,0,0,.55-.533q.012-.776,0-1.553a.508.508,0,0,0-.53-.527q-.764-.01-1.529,0a.51.51,0,0,0-.564.544c-.015.509-.013,1.019,0,1.529a.517.517,0,0,0,.546.539c.255.008.51,0,.764,0" transform="translate(-13.308 -22.455)" fill="#353ea3"/>
    <path id="Path_358" data-name="Path 358" d="M13.374,3.8c-.6.52-1.194,1.029-1.784,1.539Q7.171,9.168,2.753,13a1.593,1.593,0,0,1-1.709.335,1.633,1.633,0,0,1-.475-2.757q1.207-1.053,2.423-2.1a.457.457,0,0,0,.174-.389c-.006-1.02,0-2.041,0-3.061,0-.525.181-.7.706-.7l1.578,0c.475,0,.661.188.662.666,0,.236,0,.471,0,.776.229-.2.408-.346.585-.5Q9.442,2.889,12.189.51a1.638,1.638,0,0,1,2.379,0l11.549,10a1.647,1.647,0,0,1,.541,1.847,1.626,1.626,0,0,1-2.611.675c-.926-.792-1.844-1.6-2.766-2.394L13.565,3.961c-.054-.047-.11-.091-.19-.158" transform="translate(0 0)" fill="#353ea3"/>
  </g>
</svg>
