<svg xmlns="http://www.w3.org/2000/svg" width="74" height="75" viewBox="437 3936.95 74 75"><g data-name="Group 843"><path d="M437 3974.4a37 37.5 0 1 1 0 .1z" fill="#fff" fill-rule="evenodd" data-name="Ellipse 30"/><g data-name="Group 208"><g data-name="Group 207" transform="translate(438.836 3939.074)" clip-path="url(&quot;#a&quot;)"><path d="M25.221 51.956h20.177a6.565 6.565 0 0 0 6.558-6.558V25.221a6.565 6.565 0 0 0-6.558-6.557H25.221a6.565 6.565 0 0 0-6.557 6.557v20.177a6.565 6.565 0 0 0 6.557 6.558m20.816-29.96a2.522 2.522 0 1 1 0 5.044 2.522 2.522 0 0 1 0-5.044M35.31 25.221c5.572 0 10.088 4.517 10.088 10.089 0 5.571-4.516 10.088-10.088 10.088-5.572 0-10.089-4.517-10.089-10.088 0-5.572 4.517-10.089 10.089-10.089" fill="#353ea3" fill-rule="evenodd" data-name="Path 245"/><path d="M35.31 41.867a6.557 6.557 0 0 0 6.557-6.557 6.565 6.565 0 0 0-6.557-6.558 6.557 6.557 0 1 0 0 13.115" fill="#353ea3" fill-rule="evenodd" data-name="Path 246"/><path d="M35.31 70.62c19.5 0 35.31-15.81 35.31-35.31C70.62 15.809 54.81 0 35.31 0 15.809 0 0 15.809 0 35.31c0 19.5 15.809 35.31 35.31 35.31M15.133 25.22c0-5.572 4.516-10.088 10.088-10.088h20.177c5.572 0 10.089 4.516 10.089 10.088v20.177c0 5.572-4.517 10.089-10.089 10.089H25.221c-5.572 0-10.088-4.517-10.088-10.089V25.221Z" fill="#353ea3" fill-rule="evenodd" data-name="Path 247"/></g></g></g><defs><clipPath id="a"><path d="M0 0h70.62v70.62H0V0z" data-name="Rectangle 423"/></clipPath></defs></svg>