<svg id="Rescue_Removals_-_Big_Logo" data-name="Rescue Removals - Big Logo" xmlns="http://www.w3.org/2000/svg" xmlns:xlink="http://www.w3.org/1999/xlink" width="247.145" height="73.677" viewBox="0 0 247.145 73.677">
  <defs>
    <clipPath id="clip-path">
      <rect id="Rectangle_453" data-name="Rectangle 453" width="247.145" height="73.677" fill="#353ea3"/>
    </clipPath>
  </defs>
  <g id="Rescue_Removals_-_Big_Logo-2" data-name="Rescue Removals - Big Logo" clip-path="url(#clip-path)">
    <path id="Path_269" data-name="Path 269" d="M27.123,99.283H16.568L8.479,86.716V99.283H0V66.608H13.194a12.943,12.943,0,0,1,4.758.8,8.972,8.972,0,0,1,5.342,5.4,11.214,11.214,0,0,1,.67,3.9,9.6,9.6,0,0,1-1.8,6.045,9.036,9.036,0,0,1-5.3,3.141ZM8.479,81.213h1.6a6.171,6.171,0,0,0,3.85-1.041,4,4,0,0,0,0-5.98,6.175,6.175,0,0,0-3.85-1.041h-1.6Z" transform="translate(0 -26.517)" fill="#353ea3"/>
    <path id="Path_270" data-name="Path 270" d="M62.407,73.8H52.327v5.46h9.517v7.194H52.327V92.09h10.08v7.194H43.848V66.608H62.407Z" transform="translate(-17.504 -26.518)" fill="#353ea3"/>
    <path id="Path_271" data-name="Path 271" d="M75.24,99.284l5.537-32.675h8.392L95.7,84.029l6.488-17.421h8.393l5.537,32.675h-8.435l-2.812-18.808-7.7,18.808H93.8L86.487,80.476,83.675,99.284Z" transform="translate(-30.036 -26.518)" fill="#353ea3"/>
    <path id="Path_272" data-name="Path 272" d="M142.559,82.345a17.091,17.091,0,0,1,1.341-6.783,16.744,16.744,0,0,1,9.409-9.143,20.7,20.7,0,0,1,14.556,0,17.2,17.2,0,0,1,5.732,3.662,16.764,16.764,0,0,1,3.742,5.481,17.822,17.822,0,0,1,0,13.565,16.754,16.754,0,0,1-3.742,5.482,17.186,17.186,0,0,1-5.732,3.662,20.7,20.7,0,0,1-14.556,0,16.9,16.9,0,0,1-10.75-15.926m8.868,0a8.711,8.711,0,0,0,.735,3.6,9.081,9.081,0,0,0,1.99,2.86,8.981,8.981,0,0,0,2.92,1.885,9.425,9.425,0,0,0,9.993-1.885,8.923,8.923,0,0,0,2.012-2.86,9.166,9.166,0,0,0,0-7.194,8.949,8.949,0,0,0-2.012-2.86A9.5,9.5,0,0,0,157.072,74a8.983,8.983,0,0,0-4.91,4.745,8.718,8.718,0,0,0-.735,3.6" transform="translate(-56.909 -25.916)" fill="#353ea3"/>
    <path id="Path_273" data-name="Path 273" d="M205.413,66.608,213.286,86.5,221.2,66.608h9.214L216.66,99.284h-6.748L196.2,66.608Z" transform="translate(-78.322 -26.517)" fill="#353ea3"/>
    <path id="Path_274" data-name="Path 274" d="M265.234,93.607H253.122l-1.947,5.676h-9.041l12.415-32.675h9.257l12.415,32.675H267.18Zm-2.249-6.458-3.807-10.877-3.807,10.877Z" transform="translate(-96.659 -26.517)" fill="#353ea3"/>
    <path id="Path_275" data-name="Path 275" d="M390.633,74.371a10.477,10.477,0,0,0-2.768-1.668,7.343,7.343,0,0,0-2.682-.542,4.346,4.346,0,0,0-2.682.78,2.432,2.432,0,0,0-1.038,2.037,2.024,2.024,0,0,0,.519,1.43,4.523,4.523,0,0,0,1.363.975,11.517,11.517,0,0,0,1.9.714q1.06.3,2.1.65a13.089,13.089,0,0,1,6.078,3.706,9.155,9.155,0,0,1,1.925,6.045,11.787,11.787,0,0,1-.844,4.55,9.485,9.485,0,0,1-2.466,3.489,11.359,11.359,0,0,1-3.98,2.253,16.563,16.563,0,0,1-5.342.8,19.622,19.622,0,0,1-11.463-3.684l3.634-6.847a14.7,14.7,0,0,0,3.763,2.513,9.03,9.03,0,0,0,3.677.823,4.386,4.386,0,0,0,3.093-.953A2.957,2.957,0,0,0,386.177,88a2.773,2.773,0,0,0-.865-1,6.919,6.919,0,0,0-1.579-.845q-.973-.391-2.358-.867-1.644-.521-3.223-1.148a10.122,10.122,0,0,1-2.812-1.668,7.741,7.741,0,0,1-1.99-2.622,9.281,9.281,0,0,1-.757-4.008,11.587,11.587,0,0,1,.8-4.4,9.767,9.767,0,0,1,2.249-3.381,10.029,10.029,0,0,1,3.547-2.188,13.371,13.371,0,0,1,4.693-.78,20.513,20.513,0,0,1,5.061.672,22.347,22.347,0,0,1,5.061,1.971Z" transform="translate(-148.203 -25.916)" fill="#353ea3"/>
    <path id="Path_276" data-name="Path 276" d="M28.035,36.686H17.48L9.391,24.119V36.686H.912V4.011H14.106a12.944,12.944,0,0,1,4.758.8,8.972,8.972,0,0,1,5.342,5.4,11.214,11.214,0,0,1,.671,3.9,9.6,9.6,0,0,1-1.8,6.045,9.036,9.036,0,0,1-5.3,3.141ZM9.391,18.616h1.6a6.171,6.171,0,0,0,3.85-1.041,3.557,3.557,0,0,0,1.341-2.99,3.558,3.558,0,0,0-1.341-2.99,6.175,6.175,0,0,0-3.85-1.041h-1.6Z" transform="translate(-0.364 -1.597)" fill="#353ea3"/>
    <path id="Path_277" data-name="Path 277" d="M63.319,11.205H53.239v5.46h9.517V23.86H53.239v5.634h10.08v7.194H44.76V4.012H63.319Z" transform="translate(-17.868 -1.597)" fill="#353ea3"/>
    <path id="Path_278" data-name="Path 278" d="M95.532,11.774a10.475,10.475,0,0,0-2.769-1.668,7.343,7.343,0,0,0-2.682-.542,4.346,4.346,0,0,0-2.682.78,2.432,2.432,0,0,0-1.038,2.037,2.024,2.024,0,0,0,.519,1.43,4.524,4.524,0,0,0,1.363.975,11.52,11.52,0,0,0,1.9.714q1.06.3,2.1.65a13.088,13.088,0,0,1,6.078,3.706,9.155,9.155,0,0,1,1.925,6.045,11.788,11.788,0,0,1-.844,4.55,9.484,9.484,0,0,1-2.466,3.489,11.359,11.359,0,0,1-3.98,2.253,16.563,16.563,0,0,1-5.342.8,19.622,19.622,0,0,1-11.463-3.684l3.634-6.847a14.7,14.7,0,0,0,3.763,2.513,9.03,9.03,0,0,0,3.677.823,4.386,4.386,0,0,0,3.093-.953,2.957,2.957,0,0,0,.757-3.445,2.773,2.773,0,0,0-.865-1,6.919,6.919,0,0,0-1.579-.845q-.973-.391-2.358-.867-1.644-.521-3.223-1.148a10.122,10.122,0,0,1-2.812-1.668,7.74,7.74,0,0,1-1.99-2.622,9.28,9.28,0,0,1-.757-4.008,11.587,11.587,0,0,1,.8-4.4,9.767,9.767,0,0,1,2.249-3.381A10.029,10.029,0,0,1,84.09,3.28a13.371,13.371,0,0,1,4.693-.78,20.513,20.513,0,0,1,5.061.672,22.347,22.347,0,0,1,5.061,1.971Z" transform="translate(-30.4 -0.995)" fill="#353ea3"/>
    <path id="Path_279" data-name="Path 279" d="M140.424,14.331a9.047,9.047,0,0,0-7.267-3.6,8.874,8.874,0,0,0-3.526.694,8.572,8.572,0,0,0-2.79,1.885A8.682,8.682,0,0,0,125,16.15a9.329,9.329,0,0,0-.67,3.554,9.433,9.433,0,0,0,.67,3.6,8.658,8.658,0,0,0,4.65,4.768,8.609,8.609,0,0,0,3.461.693,9.811,9.811,0,0,0,7.311-3.467V35.349l-.865.3a25.1,25.1,0,0,1-3.634,1.018,17.582,17.582,0,0,1-3.331.325,17.01,17.01,0,0,1-11.918-4.875,17.892,17.892,0,0,1-3.785-5.5,16.812,16.812,0,0,1-1.427-6.956,16.722,16.722,0,0,1,1.406-6.911A17.222,17.222,0,0,1,132.637,2.5a17.9,17.9,0,0,1,3.828.411,23.3,23.3,0,0,1,3.958,1.278Z" transform="translate(-46.093 -0.995)" fill="#353ea3"/>
    <path id="Path_280" data-name="Path 280" d="M167.214,4.011V21.78q0,1.429.109,2.925a8,8,0,0,0,.648,2.708,4.5,4.5,0,0,0,1.709,1.971,6.015,6.015,0,0,0,3.288.758,5.9,5.9,0,0,0,3.266-.758,4.7,4.7,0,0,0,1.709-1.971,7.734,7.734,0,0,0,.671-2.708q.107-1.5.108-2.925V4.011h8.435V22.949q0,7.627-3.482,11.137T172.967,37.6q-7.224,0-10.728-3.51t-3.5-11.137V4.011Z" transform="translate(-63.367 -1.597)" fill="#353ea3"/>
    <path id="Path_281" data-name="Path 281" d="M228.772,11.205H218.693v5.46h9.516V23.86h-9.516v5.634h10.079v7.194H210.215V4.012h18.558Z" transform="translate(-83.917 -1.597)" fill="#353ea3"/>
    <path id="Path_282" data-name="Path 282" d="M288.911,62.68a10.252,10.252,0,0,1,4.973-8.884.938.938,0,0,0,.526-1.227Q289.4,32.76,284.43,12.939c-.407-1.621-.82-3.241-1.2-4.87a.859.859,0,0,0-.924-.786c-2.1-.143-4.2-.34-6.3-.558a2.164,2.164,0,0,1-2.161-2.379,2.3,2.3,0,0,1,2.582-1.827c2.687.341,5.4.5,8.1.726a2.3,2.3,0,0,1,2.312,1.942q4.412,17.543,8.816,35.089c.948,3.774,1.9,7.548,2.823,11.329.138.564.4.714.958.727a9.907,9.907,0,0,1,7.995,4.193.968.968,0,0,0,1.2.467q14.386-3.716,28.786-7.377a2.139,2.139,0,0,1,2.805,2.325A1.778,1.778,0,0,1,338.8,53.62q-14.116,3.619-28.234,7.23c-1.215.311-1.217.3-1.175,1.515A10.224,10.224,0,0,1,289.147,64.6c-.129-.7-.175-1.411-.236-1.918m17.206,0a6.957,6.957,0,1,0-7.112,6.847,6.938,6.938,0,0,0,7.112-6.847" transform="translate(-109.315 -0.995)" fill="#353ea3"/>
    <path id="Path_283" data-name="Path 283" d="M298.278,73.3a11.591,11.591,0,0,1-11.605-9.426c-.1-.552-.157-1.1-.2-1.543-.017-.169-.033-.327-.05-.468l-.014-.119,0-.119a11.787,11.787,0,0,1,5.471-9.97q-4.482-17.705-8.921-35.422L281.848,11.8c-.332-1.318-.675-2.678-.993-4.032-1.793-.129-3.7-.3-6-.539a3.64,3.64,0,0,1-3.5-4.009A3.468,3.468,0,0,1,272.676.873,3.93,3.93,0,0,1,275.62.031c1.894.24,3.85.391,5.742.537.765.06,1.531.119,2.3.183A3.777,3.777,0,0,1,287.3,3.825q4.412,17.545,8.817,35.091l.379,1.513q1.184,4.707,2.347,9.42a11.314,11.314,0,0,1,8.676,4.625q11.561-2.983,23.044-5.907l5.491-1.4a3.766,3.766,0,0,1,3.424.714,3.706,3.706,0,0,1,1.249,3.2,3.285,3.285,0,0,1-2.549,3.01q-14.117,3.618-28.235,7.23l-.044.011a11.723,11.723,0,0,1-10.155,11.894,12.854,12.854,0,0,1-1.465.084m-8.859-11.672c.014.126.028.262.041.406.041.405.087.864.166,1.293A8.723,8.723,0,0,0,306.9,61.423c-.068-1.918.4-2.538,2.277-3.018q14.157-3.622,28.26-7.237c.236-.06.281-.113.3-.35a.738.738,0,0,0-.2-.645.832.832,0,0,0-.74-.094l-5.493,1.4q-11.648,2.976-23.29,5.973a2.464,2.464,0,0,1-2.777-1.017,8.384,8.384,0,0,0-6.832-3.6,2.3,2.3,0,0,1-2.381-1.874c-.8-3.272-1.619-6.54-2.44-9.806l-.38-1.513Q288.8,22.1,284.387,4.56c-.15-.594-.281-.751-.982-.81-.758-.064-1.516-.123-2.274-.181-1.928-.149-3.921-.3-5.888-.553a.875.875,0,0,0-.9.477c-.014.172-.057.649.821.74,2.434.253,4.419.429,6.248.554A2.337,2.337,0,0,1,283.7,6.734c.335,1.442.7,2.91,1.061,4.328l1.116,4.44q4.485,17.854,8.992,35.7a2.415,2.415,0,0,1-1.182,2.871,8.7,8.7,0,0,0-4.266,7.555m8.786,8.4c-.079,0-.159,0-.238,0a8.452,8.452,0,0,1-8.255-8.789,8.235,8.235,0,0,1,2.66-5.868A8.482,8.482,0,0,1,304,67.727a8.334,8.334,0,0,1-5.794,2.308m.026-13.946a5.571,5.571,0,0,0-3.816,1.492,5.246,5.246,0,0,0-1.7,3.735,5.412,5.412,0,0,0,5.333,5.707,5.341,5.341,0,0,0,3.879-1.476,5.509,5.509,0,0,0,1.691-3.9,5.419,5.419,0,0,0-5.244-5.557l-.142,0" transform="translate(-108.317 0)" fill="#353ea3"/>
    <path id="Path_284" data-name="Path 284" d="M314.619,55.187l25.89-6.583,4.5,17.748c-.987.268-1.942.543-2.906.788-5.485,1.4-10.974,2.772-16.454,4.187a1.3,1.3,0,0,1-1.546-.448,9.045,9.045,0,0,0-5.568-3.051c-.406-.064-.764-.091-.9-.632-.976-3.96-1.986-7.912-3.021-12.008" transform="translate(-125.595 -19.35)" fill="#353ea3"/>
    <path id="Path_285" data-name="Path 285" d="M311.608,44.587,308.192,31.1l18.621-4.739,3.418,13.487-18.623,4.734" transform="translate(-123.029 -10.496)" fill="#353ea3"/>
    <path id="Path_286" data-name="Path 286" d="M303.309,12.519,317.149,9l2.539,10.015L305.85,22.538c-.853-3.362-1.684-6.64-2.541-10.02" transform="translate(-121.08 -3.583)" fill="#353ea3"/>
    <path id="Path_287" data-name="Path 287" d="M309.07,99.538a4.2,4.2,0,0,0,4.17,4.192,4.277,4.277,0,0,0,4.2-4.207,4.208,4.208,0,0,0-4.21-4.159,4.123,4.123,0,0,0-4.156,4.175" transform="translate(-123.379 -37.965)" fill="#353ea3"/>
    <path id="Path_288" data-name="Path 288" d="M309.07,99.538a4.123,4.123,0,0,1,4.156-4.175,4.208,4.208,0,0,1,4.21,4.159,4.277,4.277,0,0,1-4.2,4.207,4.2,4.2,0,0,1-4.17-4.192" transform="translate(-123.379 -37.965)" fill="#353ea3"/>
  </g>
</svg>
