<svg xmlns="http://www.w3.org/2000/svg" width="221.33" height="65.862" viewBox="350 26.494 221.33 65.862"><g data-name="Rescue Removals Logo" transform="translate(350 26.494)" clip-path="url(&quot;#a&quot;)"><path d="M24.29 65.048h-9.453L7.593 53.814v11.234H0v-29.21h11.816c1.627 0 3.047.24 4.26.717 1.214.478 2.215 1.13 3.003 1.957a8.259 8.259 0 0 1 1.782 2.866c.4 1.085.6 2.248.6 3.487 0 2.222-.536 4.023-1.607 5.404-1.072 1.382-2.654 2.318-4.746 2.809l9.182 11.97ZM7.593 48.894h1.433c1.498 0 2.648-.31 3.448-.93.8-.62 1.201-1.51 1.201-2.673 0-1.162-.4-2.053-1.2-2.673-.801-.62-1.951-.93-3.449-.93H7.593v7.206Z" fill="#fff" fill-rule="evenodd" data-name="Path 207"/><path d="M40.212 42.27h-9.026v4.88h8.522v6.431h-8.522v5.036h9.026v6.431h-16.62v-29.21h16.62v6.431Z" fill="#fff" fill-rule="evenodd" data-name="Path 208"/><path d="m40.483 65.048 4.959-29.21h7.515l5.85 15.574 5.81-15.573h7.516l4.959 29.21h-7.554l-2.519-16.814-6.895 16.813h-3.022l-6.547-16.813-2.518 16.813h-7.554Z" fill="#fff" fill-rule="evenodd" data-name="Path 209"/><path d="M76.704 50.444c0-2.17.4-4.19 1.2-6.064.8-1.871 1.911-3.505 3.332-4.9 1.42-1.394 3.119-2.485 5.095-3.273 1.975-.788 4.151-1.182 6.527-1.182 2.35 0 4.52.394 6.508 1.182 1.99.788 3.7 1.879 5.133 3.273a14.985 14.985 0 0 1 3.351 4.9c.8 1.874 1.201 3.894 1.201 6.064s-.4 4.19-1.2 6.063a14.976 14.976 0 0 1-3.352 4.9c-1.433 1.395-3.144 2.486-5.133 3.274-1.989.787-4.158 1.181-6.508 1.181-2.376 0-4.552-.394-6.527-1.181-1.976-.788-3.674-1.88-5.095-3.274a15.106 15.106 0 0 1-3.331-4.9c-.801-1.873-1.201-3.894-1.201-6.063m7.941 0c0 1.162.22 2.234.659 3.215a8.118 8.118 0 0 0 1.782 2.557 8.045 8.045 0 0 0 2.615 1.685 8.36 8.36 0 0 0 3.157.6 8.368 8.368 0 0 0 5.792-2.285 7.976 7.976 0 0 0 1.801-2.557c.439-.981.659-2.053.659-3.215s-.22-2.234-.659-3.216a8 8 0 0 0-1.801-2.557 8.379 8.379 0 0 0-5.792-2.286 8.37 8.37 0 0 0-3.157.601 8.08 8.08 0 0 0-2.615 1.685 8.142 8.142 0 0 0-1.782 2.557c-.44.982-.659 2.054-.659 3.216" fill="#fff" fill-rule="evenodd" data-name="Path 210"/><path d="m113.816 35.839 7.051 17.781 7.09-17.781h8.25l-12.318 29.21h-6.044l-12.28-29.21h8.251Z" fill="#fff" fill-rule="evenodd" data-name="Path 211"/><path d="M150.967 59.974H140.12l-1.743 5.074h-8.097l11.118-29.21h8.29l11.119 29.21h-8.097l-1.743-5.074Zm-2.014-5.773-3.41-9.723-3.409 9.723h6.819Z" fill="#fff" fill-rule="evenodd" data-name="Path 212"/><path d="M217.108 43.316c-.827-.672-1.653-1.169-2.48-1.492-.826-.323-1.627-.484-2.401-.484-.982 0-1.782.232-2.402.697-.62.465-.93 1.072-.93 1.821 0 .517.154.943.465 1.278.31.336.717.627 1.22.872.504.246 1.072.458 1.705.639s1.259.375 1.879.58c2.479.828 4.293 1.932 5.443 3.314 1.148 1.381 1.723 3.183 1.723 5.404 0 1.498-.251 2.854-.755 4.067a8.479 8.479 0 0 1-2.208 3.119c-.969.866-2.157 1.537-3.564 2.014-1.408.478-3.002.717-4.784.717-3.694 0-7.116-1.098-10.266-3.293l3.254-6.12c1.135 1.007 2.259 1.756 3.37 2.246 1.11.491 2.208.736 3.293.736 1.239 0 2.162-.284 2.77-.852.606-.568.91-1.214.91-1.937 0-.439-.077-.82-.232-1.143-.155-.323-.414-.62-.775-.89-.362-.272-.833-.524-1.414-.756a46.459 46.459 0 0 0-2.111-.775 42.288 42.288 0 0 1-2.887-1.027 9.069 9.069 0 0 1-2.518-1.491c-.736-.62-1.33-1.401-1.782-2.344-.452-.942-.678-2.136-.678-3.583 0-1.446.239-2.757.717-3.932a8.73 8.73 0 0 1 2.015-3.022c.864-.839 1.923-1.491 3.176-1.956 1.252-.466 2.654-.698 4.203-.698 1.446 0 2.958.2 4.533.6 1.575.401 3.086.989 4.533 1.763l-3.022 5.928Z" fill="#fff" fill-rule="evenodd" data-name="Path 213"/><path d="M24.78 31.368h-9.452L8.084 20.134v11.234H.49V2.158h11.815c1.627 0 3.047.24 4.262.717 1.213.478 2.214 1.13 3.002 1.957a8.26 8.26 0 0 1 1.782 2.866c.4 1.085.6 2.247.6 3.487 0 2.222-.536 4.022-1.607 5.404-1.072 1.382-2.654 2.318-4.746 2.808l9.181 11.97ZM8.084 15.214h1.433c1.497 0 2.647-.31 3.448-.93.8-.62 1.2-1.51 1.2-2.673 0-1.162-.4-2.054-1.2-2.673-.8-.62-1.95-.93-3.448-.93H8.084v7.206Z" fill="#fff" fill-rule="evenodd" data-name="Path 214"/><path d="M40.703 8.59h-9.027v4.88H40.2v6.431h-8.523v5.036h9.027v6.431h-16.62V2.158h16.62V8.59Z" fill="#fff" fill-rule="evenodd" data-name="Path 215"/><path d="M58.329 9.635c-.827-.671-1.653-1.168-2.48-1.491-.826-.323-1.627-.484-2.401-.484-.982 0-1.782.232-2.402.697-.62.465-.93 1.072-.93 1.82 0 .518.155.944.465 1.28.31.335.717.625 1.22.87.504.247 1.072.46 1.705.64s1.259.375 1.879.58c2.479.828 4.293 1.932 5.443 3.313 1.148 1.382 1.723 3.183 1.723 5.404 0 1.498-.251 2.854-.755 4.068a8.479 8.479 0 0 1-2.208 3.119c-.969.865-2.157 1.537-3.564 2.014-1.408.477-3.002.717-4.784.717-3.694 0-7.116-1.098-10.266-3.293l3.254-6.12c1.136 1.006 2.259 1.756 3.37 2.246 1.11.49 2.208.736 3.293.736 1.239 0 2.162-.284 2.77-.852.606-.568.91-1.214.91-1.937 0-.44-.077-.82-.232-1.143-.155-.323-.414-.62-.775-.891-.362-.272-.833-.523-1.414-.755a46.476 46.476 0 0 0-2.111-.775 42.284 42.284 0 0 1-2.886-1.027 9.069 9.069 0 0 1-2.519-1.491c-.736-.62-1.33-1.401-1.782-2.345-.452-.942-.678-2.136-.678-3.582 0-1.447.239-2.757.717-3.933a8.73 8.73 0 0 1 2.015-3.022c.864-.838 1.923-1.49 3.176-1.956 1.252-.465 2.654-.697 4.204-.697 1.445 0 2.957.2 4.532.6 1.575.4 3.086.988 4.533 1.763l-3.022 5.927Z" fill="#fff" fill-rule="evenodd" data-name="Path 216"/><path d="M84.478 11.921c-1.757-2.143-3.926-3.216-6.508-3.216-1.137 0-2.189.207-3.157.62a7.677 7.677 0 0 0-2.5 1.686 7.76 7.76 0 0 0-1.646 2.537c-.4.982-.6 2.04-.6 3.177 0 1.162.2 2.234.6 3.215.4.982.955 1.834 1.666 2.557a7.794 7.794 0 0 0 2.499 1.704c.955.414 1.989.62 3.1.62 2.426 0 4.609-1.032 6.546-3.099v8.988l-.775.27a22.505 22.505 0 0 1-3.254.911c-1.007.194-2.002.29-2.983.29-2.014 0-3.945-.38-5.791-1.142a15.132 15.132 0 0 1-4.882-3.215c-1.408-1.382-2.537-3.023-3.39-4.92-.852-1.899-1.278-3.971-1.278-6.219 0-2.246.42-4.305 1.26-6.178.838-1.872 1.962-3.487 3.37-4.842a15.414 15.414 0 0 1 4.9-3.177 15.29 15.29 0 0 1 5.85-1.143c1.162 0 2.305.123 3.428.368 1.124.246 2.305.626 3.545 1.142v9.066Z" fill="#fff" fill-rule="evenodd" data-name="Path 217"/><path d="M93 2.158v15.884c0 .852.033 1.724.098 2.615.064.89.257 1.698.58 2.421.323.723.834 1.31 1.53 1.762.698.453 1.68.678 2.945.678s2.24-.225 2.924-.678a4.203 4.203 0 0 0 1.53-1.762c.336-.723.537-1.53.602-2.421.064-.891.096-1.763.096-2.615V2.158h7.554v16.93c0 4.545-1.04 7.863-3.118 9.956-2.08 2.092-5.275 3.138-9.588 3.138-4.313 0-7.516-1.046-9.608-3.138-2.092-2.093-3.137-5.41-3.137-9.956V2.158H93Z" fill="#fff" fill-rule="evenodd" data-name="Path 218"/><path d="M129.725 8.59H120.7v4.88h8.522v6.431h-8.522v5.036h9.026v6.431h-16.62V2.158h16.62V8.59Z" fill="#fff" fill-rule="evenodd" data-name="Path 219"/><path d="M160.838 55.143c.135-3.552 1.603-6.153 4.453-7.943.466-.292.613-.533.47-1.096-2.992-11.805-5.963-23.616-8.936-35.427-.365-1.45-.734-2.897-1.073-4.353-.11-.473-.308-.669-.827-.703a159.705 159.705 0 0 1-5.643-.499c-1.293-.134-2.036-.996-1.935-2.127.08-.876 1.104-1.787 2.312-1.633 2.407.305 4.834.444 7.254.65 1.155.097 1.786.608 2.07 1.736 2.634 10.454 5.265 20.91 7.895 31.367.85 3.374 1.703 6.747 2.529 10.127.123.505.354.639.857.65 2.993.073 5.37 1.377 7.16 3.748.305.403.541.556 1.078.418 8.59-2.215 17.185-4.401 25.78-6.594 1.455-.372 2.637.606 2.511 2.078-.066.777-.506 1.304-1.276 1.501-8.427 2.157-16.855 4.311-25.284 6.463-1.089.279-1.09.271-1.052 1.355.16 4.546-3.426 8.747-7.902 9.255-4.93.56-9.366-2.582-10.23-7.259-.116-.624-.157-1.261-.211-1.714m15.409-.005c.075-3.405-2.63-6.259-6.008-6.342-3.471-.085-6.363 2.6-6.446 5.983-.087 3.568 2.557 6.384 6.084 6.48 3.475.094 6.292-2.614 6.37-6.12" fill="#fff" fill-rule="evenodd" data-name="Path 220"/><path d="M170.12 65.527c-5.122 0-9.472-3.44-10.393-8.425a16.288 16.288 0 0 1-.18-1.38l-.044-.418-.013-.106.004-.107c.149-3.892 1.797-6.89 4.9-8.912-2.676-10.552-5.333-21.109-7.99-31.665l-.999-3.968a232.457 232.457 0 0 1-.889-3.604 169.039 169.039 0 0 1-5.372-.482c-2.016-.209-3.306-1.683-3.136-3.584.07-.784.501-1.547 1.184-2.096a3.524 3.524 0 0 1 2.636-.753c1.696.215 3.448.35 5.142.48.686.054 1.372.106 2.057.164 1.74.147 2.838 1.071 3.26 2.748 2.635 10.456 5.267 20.912 7.897 31.369l.34 1.352c.706 2.805 1.413 5.61 2.101 8.42 3.156.163 5.768 1.552 7.77 4.136 6.902-1.778 13.769-3.53 20.637-5.28l4.917-1.256c1.133-.288 2.249-.054 3.067.64.807.682 1.215 1.724 1.118 2.856-.114 1.349-.968 2.354-2.283 2.691-8.428 2.156-16.856 4.31-25.285 6.463l-.04.01c.182 5.274-3.896 10.042-9.094 10.633-.442.05-.88.074-1.312.074m-7.934-10.433c.013.113.025.234.038.362.036.362.077.773.148 1.157.739 3.999 4.5 6.65 8.756 6.167 3.772-.429 6.844-4.033 6.71-7.872-.062-1.714.358-2.269 2.038-2.698 8.453-2.159 16.88-4.313 25.309-6.47.21-.053.251-.1.269-.312.022-.257-.041-.461-.177-.576-.147-.124-.389-.154-.662-.085l-4.919 1.255a7947.972 7947.972 0 0 0-20.857 5.34c-1.506.388-2.245-.59-2.488-.91-1.586-2.102-3.588-3.153-6.119-3.214-1.43-.035-1.949-.93-2.132-1.675-.714-2.926-1.45-5.846-2.185-8.766l-.34-1.353c-2.63-10.456-5.262-20.913-7.896-31.368-.134-.53-.252-.671-.879-.724-.678-.058-1.357-.11-2.036-.162-1.727-.133-3.512-.27-5.274-.494-.458-.058-.778.298-.804.426-.013.154-.05.58.735.662 2.18.226 3.958.384 5.596.495 1.091.074 1.8.676 2.046 1.74.3 1.29.63 2.601.95 3.87l1 3.968c2.678 10.64 5.356 21.28 8.053 31.916.416 1.64-.695 2.338-1.06 2.567-2.463 1.547-3.679 3.695-3.82 6.754m7.869 7.513c-.071 0-.143-.001-.213-.003-4.25-.115-7.498-3.567-7.393-7.857.049-2.002.895-3.865 2.382-5.245a7.6 7.6 0 0 1 5.441-2.05c4.128.1 7.412 3.563 7.32 7.716-.045 2.068-.88 3.977-2.349 5.375a7.47 7.47 0 0 1-5.188 2.064m.024-12.467c-1.28 0-2.488.47-3.418 1.334a4.686 4.686 0 0 0-1.523 3.339c-.07 2.833 1.985 5.026 4.776 5.102a4.788 4.788 0 0 0 3.474-1.32c.947-.901 1.485-2.14 1.515-3.486.058-2.674-2.048-4.903-4.697-4.968a5.039 5.039 0 0 0-.127-.001" fill="#fff" fill-rule="evenodd" data-name="Path 221"/><path d="m169.28 32.037 23.186-5.886 4.032 15.866c-.883.24-1.74.485-2.602.704-4.912 1.247-9.828 2.478-14.735 3.743-.59.152-.956.092-1.385-.4-1.315-1.51-2.999-2.415-4.986-2.728-.363-.057-.684-.081-.804-.565-.874-3.54-1.778-7.072-2.705-10.734" fill="#fff" fill-rule="evenodd" data-name="Path 222"/><path d="m168.882 30.475-3.06-12.053 16.676-4.236 3.061 12.056-16.677 4.233" fill="#fff" fill-rule="evenodd" data-name="Path 223"/><path d="m163.195 7.988 12.394-3.146 2.274 8.954-12.392 3.149-2.276-8.957" fill="#fff" fill-rule="evenodd" data-name="Path 224"/><path d="M166.295 55.042c.009 2.066 1.708 3.77 3.734 3.747 2.047-.023 3.754-1.731 3.758-3.761.004-2.033-1.714-3.728-3.77-3.718-2.095.01-3.73 1.65-3.722 3.732" fill="#fff" fill-rule="evenodd" data-name="Path 225"/><path d="M166.295 55.042c-.009-2.082 1.627-3.722 3.722-3.732 2.056-.01 3.774 1.685 3.77 3.718-.004 2.03-1.71 3.738-3.758 3.76-2.026.024-3.725-1.68-3.734-3.746" fill="#fff" fill-rule="evenodd" data-name="Path 226"/></g><defs><clipPath id="a"><path d="M0 0h221.33v65.862H0V0z" data-name="Rectangle 405"/></clipPath></defs></svg>