<svg id="Group_906" data-name="Group 906" xmlns="http://www.w3.org/2000/svg" xmlns:xlink="http://www.w3.org/1999/xlink" width="33.488" height="34.244" viewBox="0 0 33.488 34.244">
  <defs>
    <clipPath id="clip-path">
      <rect id="Rectangle_851" data-name="Rectangle 851" width="33.488" height="34.244" fill="#353ea3"/>
    </clipPath>
  </defs>
  <g id="Group_905" data-name="Group 905" clip-path="url(#clip-path)">
    <path id="Path_361" data-name="Path 361" d="M9.621,34.244H9.2a.585.585,0,0,0-.115-.1c-.2-.1-.4-.186-.6-.292q-2.478-1.355-4.953-2.715Q1.952,30.264.366,29.4a.6.6,0,0,1-.35-.563c0-.26-.015-.52-.015-.781Q0,17.687,0,7.317C0,6.479.009,6.484.692,6Q4.244,3.47,7.791.938C8.153.68,8.516.425,8.878.167a.751.751,0,0,1,.73-.12c1.14.387,2.285.757,3.428,1.132q4.116,1.351,8.232,2.7a.725.725,0,0,1,.581.819q0,1.162,0,2.324v.322a.459.459,0,0,0,.072-.013q2.005-.821,4.009-1.645a1.019,1.019,0,0,1,.754-.027c1.466.489,2.936.965,4.4,1.446.656.215,1.312.429,1.966.649a.556.556,0,0,1,.415.552c0,.2.018.406.018.609q0,5.961-.006,11.922,0,3.361-.01,6.723a.633.633,0,0,1-.583.735c-.909.228-1.82.449-2.73.678q-4.3,1.083-8.605,2.169-4.219,1.066-8.438,2.134-1.658.419-3.319.828c-.1.025-.2.032-.308.048l0,.036.132.055m.8-5.563h0q0,2.094,0,4.188a3.426,3.426,0,0,0,.015.418c.028.226.1.271.321.218q.683-.163,1.365-.333c.847-.213,1.693-.431,2.541-.641a.282.282,0,0,0,.248-.322c-.01-.241-.014-.482-.014-.723q0-3.484,0-6.968c0-.241.01-.482,0-.723s-.083-.3-.322-.281l-1.875.178c-.675.064-1.35.13-2.026.186a.232.232,0,0,0-.243.234,2.223,2.223,0,0,0-.011.228q0,2.171,0,4.341m5.87-.969h0q0,2.019,0,4.037c0,.277.088.343.354.279q.462-.111.922-.227c.73-.185,1.46-.375,2.191-.558A.274.274,0,0,0,20,30.965c0-.076.012-.152.012-.228q0-2.9-.007-5.808c0-.527,0-1.053,0-1.58,0-.19-.088-.256-.271-.242-1.024.078-2.049.146-3.073.232-.358.03-.363.052-.363.411q0,1.98,0,3.961M10.421,5.6c0,.742,0,1.484,0,2.226a.29.29,0,0,0,.27.325c1.235.25,2.469.5,3.7.755.5.1.52.062.516-.449-.01-1.256-.008-2.511,0-3.767,0-.371,0-.4-.364-.5q-1.87-.539-3.742-1.07c-.285-.081-.377-.015-.378.278,0,.736,0,1.472,0,2.207m0,6.919c0,.743,0,1.485,0,2.228,0,.183.071.289.262.3.063,0,.124.027.187.031q1.841.136,3.683.268c.3.021.34-.009.341-.3,0-1.365,0-2.729,0-4.094a.256.256,0,0,0-.249-.293c-1.283-.206-2.564-.42-3.846-.629-.313-.051-.376,0-.377.321,0,.723,0,1.447,0,2.171m0,6.916h0c0,.711,0,1.421,0,2.132,0,.366.054.415.426.4.437-.018.874-.046,1.311-.065.792-.034,1.585-.062,2.377-.1.282-.012.352-.068.353-.309,0-1.371,0-2.741,0-4.111a.251.251,0,0,0-.267-.291c-.051,0-.1-.016-.151-.018q-1.835-.074-3.669-.146c-.317-.012-.384.057-.385.371,0,.711,0,1.421,0,2.132m12-6.387h0q0,1.3,0,2.607c0,.261.035.317.295.354.313.044.631.057.946.083.468.038.935.079,1.4.113.233.017.294-.035.294-.23q0-2.541,0-5.082c0-.13-.039-.2-.167-.228-.8-.163-1.6-.335-2.4-.489-.315-.06-.373,0-.373.322,0,.85,0,1.7,0,2.55m.008,7.3h0v2.608c0,.245.044.3.287.288.342-.017.682-.054,1.023-.082.436-.037.872-.068,1.307-.114.289-.031.318-.075.318-.357q0-2.408,0-4.816c0-.318-.046-.374-.367-.387q-1.084-.045-2.168-.076c-.353-.01-.394.033-.4.388,0,.85,0,1.7,0,2.551m-6.139-13.3h0c0,.647,0,1.295,0,1.942,0,.277.03.312.3.372.13.029.262.045.392.072.868.179,1.736.361,2.6.539.329.067.414,0,.427-.337,0-.044,0-.089,0-.133,0-.622-.008-1.244-.01-1.866,0-.539-.005-1.078,0-1.618,0-.21-.1-.3-.295-.354C18.7,5.379,17.7,5.089,16.694,4.8c-.333-.095-.406-.038-.407.317,0,.641,0,1.282,0,1.923m0,6.2h.005c0,.654,0,1.308,0,1.962,0,.187.057.293.268.307.512.034,1.024.087,1.535.131.537.046,1.075.089,1.612.137.181.016.278-.057.292-.239,0-.057.016-.114.016-.17,0-1.149,0-2.3,0-3.447,0-.373-.029-.4-.4-.467-.962-.162-1.927-.312-2.889-.475-.355-.06-.436-.006-.437.358,0,.635,0,1.27,0,1.9M27.192,25.868h0q0,1.494,0,2.988a1.316,1.316,0,0,0,.018.265.192.192,0,0,0,.251.168c.67-.165,1.338-.336,2.007-.5a.2.2,0,0,0,.169-.217c0-.184-.016-.367-.016-.55q0-2.408,0-4.815c0-.26,0-.52,0-.78a.154.154,0,0,0-.171-.178,2.1,2.1,0,0,0-.228.006q-.834.07-1.668.144c-.3.027-.35.078-.363.39,0,.051,0,.1,0,.152q0,1.466,0,2.931M16.285,19.436h0c0,.66,0,1.32,0,1.98,0,.227.061.3.253.294,1.039-.042,2.079-.086,3.117-.14.3-.015.329-.054.334-.346.01-.7.011-1.408.01-2.113,0-.52-.008-1.04-.016-1.56a.236.236,0,0,0-.255-.265c-1.034-.035-2.067-.073-3.1-.107-.3-.01-.343.035-.345.335,0,.641,0,1.282,0,1.923M8.134,6.054H8.128q0-1.057,0-2.114c0-.373-.137-.461-.448-.271-.768.471-1.529.951-2.3,1.423a.5.5,0,0,0-.26.486c.015,1,.016,2.006.02,3.009,0,.235-.016.47-.006.7.014.311.1.378.377.259.821-.351,1.635-.72,2.453-1.08a.267.267,0,0,0,.168-.285c-.006-.711,0-1.422,0-2.133m0,20.1h0c0-.711-.006-1.421,0-2.132a.258.258,0,0,0-.235-.3c-.261-.052-.519-.116-.781-.164-.542-.1-1.083-.207-1.628-.28-.324-.043-.357.01-.357.339,0,1.237,0,2.474,0,3.711a.364.364,0,0,0,.258.392c.773.281,1.544.57,2.318.846.328.117.425.037.426-.316q0-1.047,0-2.093M8.128,12.742h0c0-.7,0-1.4,0-2.094,0-.333-.1-.411-.421-.3-.767.262-1.531.532-2.3.8-.241.085-.277.145-.277.408q0,1.846,0,3.693c0,.324.079.411.393.36q1.154-.185,2.3-.4c.263-.048.3-.106.3-.377q0-1.047,0-2.094m0,6.7h0c0-.7,0-1.408,0-2.113,0-.269-.045-.319-.308-.3-.784.049-1.568.107-2.351.168-.275.022-.337.115-.335.44q.01,1.608.018,3.216c0,.184-.005.368,0,.551a.253.253,0,0,0,.26.268l.644.06c.587.052,1.174.11,1.762.153.245.018.281-.027.307-.273a2.027,2.027,0,0,0,.006-.209q0-.98,0-1.96M30.17,25.349h-.005q0,1.437,0,2.875c0,.3.082.371.372.3.535-.129,1.067-.27,1.6-.4a.265.265,0,0,0,.233-.3c-.014-1.51-.015-3.02-.023-4.53,0-.343-.016-.685-.031-1.027,0-.105-.01-.219-.176-.209-.538.034-1.077.047-1.614.094-.342.03-.355.065-.356.405q0,1.4,0,2.8m-2.978-15.6h0c0,.47,0,.939,0,1.409,0,.331.014.351.333.42.563.122,1.128.238,1.692.354.377.077.411.04.412-.344q0-1.38.023-2.759c0-.2-.048-.325-.253-.382-.64-.178-1.279-.363-1.917-.548a.186.186,0,0,0-.265.159,1.161,1.161,0,0,0-.025.245c0,.482,0,.964,0,1.447m.011,4.817h-.009c0,.216,0,.431,0,.647,0,.317.007.634.015.951a.2.2,0,0,0,.212.217c.613.047,1.226.1,1.839.148.341.024.372,0,.376-.33.013-.951.013-1.9.02-2.854a.245.245,0,0,0-.22-.282c-.638-.1-1.275-.212-1.915-.3-.277-.038-.309-.006-.315.28-.011.507,0,1.015,0,1.523m-.009,4.82h0c0,.5,0,.99,0,1.485,0,.3.062.361.36.35.622-.022,1.243-.056,1.864-.084.152-.007.2-.092.2-.238,0-.99,0-1.98,0-2.97,0-.176-.061-.256-.238-.263-.608-.022-1.217-.054-1.825-.076-.33-.012-.369.03-.37.368,0,.476,0,.952,0,1.428M3.52,8.475H3.512q0-.647,0-1.3c0-.152.009-.305,0-.457C3.5,6.455,3.4,6.392,3.163,6.5a2.465,2.465,0,0,0-.283.155c-.447.277-.891.562-1.342.833a.355.355,0,0,0-.186.343c0,1.048,0,2.1.006,3.143,0,.293.11.378.377.264.537-.228,1.066-.473,1.6-.711a.307.307,0,0,0,.188-.319c-.006-.578,0-1.155,0-1.733m0,16.436h0c0-.577,0-1.154,0-1.731,0-.239-.058-.307-.285-.351q-.764-.146-1.53-.286c-.257-.047-.343.02-.344.281,0,1.065,0,2.13,0,3.2a.264.264,0,0,0,.181.279c.54.2,1.078.4,1.621.595.239.084.34,0,.359-.252,0-.051,0-.1,0-.152V24.911m0-10.944H3.512c0-.584,0-1.168,0-1.752,0-.283-.109-.356-.373-.265-.515.178-1.026.366-1.543.539a.316.316,0,0,0-.238.34q0,1.6,0,3.2c0,.178.076.261.257.231.562-.092,1.125-.184,1.687-.279.164-.028.224-.134.222-.3-.006-.571,0-1.143,0-1.714m0,5.452h0q0-.867,0-1.733c0-.239-.076-.317-.307-.3-.512.039-1.025.079-1.536.128-.279.027-.313.071-.313.346q0,1.552,0,3.1c0,.242.046.3.294.327.492.054.984.1,1.477.143.351.028.386-.017.385-.379,0-.546,0-1.092,0-1.638m26.648-8.967h0c0,.469,0,.939,0,1.408a.251.251,0,0,0,.224.294c.533.109,1.064.231,1.6.337.28.056.335,0,.346-.285,0-.089,0-.178,0-.266,0-.685,0-1.37-.007-2.055-.005-.64.131-.558-.566-.764C31.329,9,30.9,8.882,30.466,8.8c-.263-.052-.3.011-.3.286q0,.685,0,1.37m0,4.465h0c0,.438,0,.876,0,1.313,0,.331.034.384.372.414.474.042.948.075,1.423.107.335.022.368-.012.368-.356q0-1.285,0-2.57c0-.255-.027-.3-.278-.343-.505-.09-1.012-.168-1.518-.252-.291-.048-.365.015-.365.316q0,.685,0,1.371m.008,4.486c0,.469,0,.938,0,1.407,0,.237.045.287.28.278.538-.021,1.075-.066,1.613-.085.216-.008.266-.114.263-.3-.007-.336-.006-.672-.007-1.008,0-.552,0-1.1,0-1.654,0-.189-.075-.268-.271-.273-.481-.012-.962-.046-1.444-.065-.394-.016-.432.024-.434.426,0,.425,0,.849,0,1.274" transform="translate(0 0)" fill="#353ea3"/>
  </g>
</svg>
