<svg xmlns="http://www.w3.org/2000/svg" width="721.209" height="214.999" viewBox="351 355.001 721.209 214.999"><g data-name="Rescue Removals - Big Logo" transform="translate(351 355)" clip-path="url(&quot;#a&quot;)"><path d="M79.148 212.343h-30.8L24.741 175.67v36.672H0V116.99h38.501c5.302 0 9.929.781 13.886 2.34 3.953 1.56 7.215 3.69 9.783 6.387 2.567 2.698 4.5 5.818 5.807 9.357 1.302 3.542 1.956 7.336 1.956 11.383 0 7.252-1.748 13.13-5.238 17.641-3.493 4.51-8.65 7.567-15.464 9.167l29.917 39.077ZM24.742 159.61h4.67c4.88 0 8.626-1.012 11.235-3.037 2.609-2.021 3.913-4.93 3.913-8.724 0-3.794-1.304-6.704-3.913-8.726-2.609-2.023-6.355-3.037-11.235-3.037h-4.67v23.524Z" fill="#353ea3" fill-rule="evenodd" data-name="Path 187"/><path d="M131.033 137.984h-29.414v15.934h27.77v20.993h-27.77v16.44h29.414v20.992H76.877v-95.352h54.156v20.993Z" fill="#353ea3" fill-rule="evenodd" data-name="Path 188"/><path d="m131.914 212.343 16.158-95.352h24.49l19.06 50.838 18.934-50.838h24.491l16.158 95.352H226.59l-8.207-54.884-22.468 54.884h-9.846l-21.334-54.884-8.205 54.884h-24.616Z" fill="#353ea3" fill-rule="evenodd" data-name="Path 189"/><path d="M249.94 164.668c0-7.081 1.303-13.677 3.914-19.793 2.607-6.11 6.226-11.443 10.856-15.995 4.629-4.553 10.162-8.113 16.6-10.686 6.438-2.571 13.528-3.857 21.27-3.857 7.656 0 14.726 1.286 21.207 3.857 6.48 2.573 12.056 6.133 16.726 10.686 4.67 4.552 8.31 9.885 10.92 15.995 2.607 6.116 3.913 12.712 3.913 19.793 0 7.082-1.306 13.68-3.914 19.792-2.608 6.114-6.248 11.444-10.919 15.997-4.67 4.553-10.246 8.115-16.726 10.686-6.481 2.571-13.55 3.857-21.207 3.857-7.742 0-14.832-1.286-21.27-3.857-6.438-2.571-11.971-6.133-16.6-10.686-4.63-4.553-8.249-9.883-10.856-15.997-2.61-6.113-3.913-12.71-3.913-19.792m25.878 0c0 3.794.713 7.293 2.146 10.497 1.43 3.205 3.366 5.987 5.806 8.346 2.44 2.36 5.281 4.194 8.521 5.5 3.238 1.308 6.668 1.961 10.288 1.961 3.617 0 7.046-.653 10.288-1.962a26.982 26.982 0 0 0 8.584-5.499c2.48-2.359 4.44-5.14 5.87-8.346 1.429-3.204 2.146-6.703 2.146-10.497 0-3.793-.717-7.29-2.146-10.498-1.43-3.202-3.39-5.984-5.87-8.346-2.484-2.357-5.346-4.19-8.584-5.5-3.242-1.306-6.671-1.961-10.288-1.961-3.62 0-7.05.655-10.288 1.962-3.24 1.308-6.08 3.142-8.52 5.499-2.441 2.362-4.377 5.144-5.807 8.346-1.433 3.208-2.146 6.705-2.146 10.498" fill="#353ea3" fill-rule="evenodd" data-name="Path 190"/><path d="m370.873 116.991 22.974 58.046 23.101-58.046h26.888l-40.143 95.352h-19.692l-40.016-95.352h26.888Z" fill="#353ea3" fill-rule="evenodd" data-name="Path 191"/><path d="M491.929 195.778h-35.346l-5.68 16.565H424.52l36.229-95.352h27.014l36.229 95.352h-26.383l-5.68-16.565Zm-6.565-18.845-11.108-31.74-11.109 31.74h22.217Z" fill="#353ea3" fill-rule="evenodd" data-name="Path 192"/><path d="M707.45 141.4c-2.695-2.192-5.386-3.815-8.08-4.87-2.694-1.053-5.301-1.58-7.826-1.58-3.198 0-5.807.759-7.826 2.276-2.02 1.518-3.03 3.5-3.03 5.944 0 1.688.503 3.079 1.515 4.173 1.01 1.096 2.335 2.045 3.976 2.846 1.641.802 3.491 1.496 5.555 2.084 2.061.592 4.102 1.226 6.122 1.897 8.079 2.702 13.99 6.304 17.736 10.815 3.743 4.51 5.617 10.39 5.617 17.64 0 4.89-.82 9.317-2.461 13.28-1.642 3.964-4.04 7.357-7.196 10.18-3.156 2.826-7.029 5.018-11.613 6.575-4.587 1.558-9.783 2.34-15.59 2.34-12.036 0-23.185-3.583-33.452-10.75l10.604-19.98c3.7 3.288 7.361 5.735 10.982 7.335 3.617 1.602 7.195 2.402 10.73 2.402 4.038 0 7.046-.927 9.026-2.782 1.975-1.854 2.966-3.962 2.966-6.323 0-1.433-.252-2.677-.757-3.73-.505-1.054-1.349-2.024-2.525-2.909-1.18-.887-2.714-1.707-4.608-2.466-1.893-.76-4.186-1.6-6.88-2.53a137.615 137.615 0 0 1-9.404-3.35c-3.071-1.221-5.807-2.846-8.205-4.87-2.398-2.023-4.336-4.573-5.807-7.652-1.472-3.075-2.209-6.973-2.209-11.696 0-4.721.777-9 2.336-12.836 1.555-3.836 3.743-7.124 6.564-9.865 2.817-2.737 6.267-4.867 10.35-6.385 4.08-1.52 8.648-2.276 13.697-2.276 4.711 0 9.636.653 14.77 1.96a65.211 65.211 0 0 1 14.769 5.752l-9.846 19.35Z" fill="#353ea3" fill-rule="evenodd" data-name="Path 193"/><path d="M80.747 102.397h-30.8L26.34 65.725v36.672H1.599V7.045H40.1c5.302 0 9.929.782 13.886 2.34 3.953 1.56 7.214 3.69 9.783 6.388 2.567 2.697 4.5 5.817 5.807 9.356 1.302 3.543 1.956 7.336 1.956 11.383 0 7.252-1.748 13.131-5.238 17.642-3.493 4.51-8.65 7.566-15.464 9.166l29.917 39.077ZM26.341 49.664h4.67c4.88 0 8.626-1.012 11.235-3.037 2.609-2.021 3.913-4.93 3.913-8.724 0-3.794-1.304-6.704-3.913-8.726-2.609-2.023-6.355-3.036-11.235-3.036h-4.67v23.523Z" fill="#353ea3" fill-rule="evenodd" data-name="Path 194"/><path d="M132.632 28.039h-29.414v15.934h27.771v20.992h-27.771v16.44h29.414v20.993H78.476V7.046h54.156V28.04Z" fill="#353ea3" fill-rule="evenodd" data-name="Path 195"/><path d="M190.066 31.454c-2.695-2.192-5.386-3.815-8.08-4.869-2.694-1.054-5.301-1.58-7.826-1.58-3.198 0-5.807.758-7.826 2.276-2.02 1.517-3.03 3.498-3.03 5.943 0 1.688.503 3.08 1.515 4.173 1.01 1.096 2.335 2.045 3.976 2.846 1.641.802 3.491 1.496 5.555 2.085a155.72 155.72 0 0 1 6.122 1.897c8.079 2.7 13.99 6.303 17.736 10.814 3.743 4.51 5.617 10.39 5.617 17.641 0 4.89-.82 9.316-2.461 13.279-1.641 3.964-4.04 7.357-7.196 10.18-3.156 2.826-7.029 5.018-11.613 6.576-4.587 1.558-9.783 2.34-15.59 2.34-12.036 0-23.185-3.584-33.452-10.75l10.604-19.98c3.7 3.287 7.362 5.734 10.982 7.334 3.617 1.602 7.195 2.403 10.73 2.403 4.038 0 7.046-.928 9.025-2.783 1.976-1.854 2.967-3.962 2.967-6.323 0-1.433-.252-2.676-.757-3.73-.505-1.054-1.349-2.024-2.525-2.909-1.18-.887-2.714-1.707-4.608-2.466-1.893-.76-4.186-1.6-6.88-2.529a137.625 137.625 0 0 1-9.404-3.351c-3.071-1.22-5.806-2.846-8.205-4.869-2.398-2.023-4.336-4.574-5.807-7.653-1.472-3.075-2.209-6.973-2.209-11.696 0-4.72.777-9 2.336-12.835 1.555-3.836 3.743-7.124 6.564-9.866 2.817-2.737 6.268-4.867 10.35-6.385 4.08-1.519 8.648-2.276 13.697-2.276 4.711 0 9.636.653 14.77 1.96a65.211 65.211 0 0 1 14.769 5.752l-9.846 19.35Z" fill="#353ea3" fill-rule="evenodd" data-name="Path 196"/><path d="M275.273 38.915c-5.724-6.996-12.793-10.498-21.207-10.498-3.705 0-7.132.676-10.288 2.025-3.158 1.349-5.87 3.183-8.142 5.501-2.272 2.32-4.062 5.08-5.365 8.282-1.306 3.207-1.957 6.662-1.957 10.371 0 3.794.65 7.293 1.957 10.495 1.303 3.207 3.112 5.987 5.428 8.348 2.313 2.36 5.028 4.217 8.142 5.564 3.112 1.35 6.48 2.024 10.099 2.024 7.909 0 15.02-3.371 21.333-10.117v29.339l-2.524.885c-3.79 1.347-7.322 2.34-10.604 2.972a51.307 51.307 0 0 1-9.72.948c-6.564 0-12.857-1.245-18.872-3.73-6.019-2.487-11.32-5.986-15.905-10.497-4.589-4.51-8.269-9.865-11.046-16.06-2.777-6.197-4.165-12.963-4.165-20.3 0-7.332 1.365-14.054 4.102-20.168 2.733-6.11 6.394-11.381 10.982-15.808 4.587-4.426 9.91-7.882 15.969-10.37 6.06-2.485 12.411-3.73 19.061-3.73 3.787 0 7.511.4 11.172 1.2 3.66.802 7.51 2.046 11.55 3.73v29.594Z" fill="#353ea3" fill-rule="evenodd" data-name="Path 197"/><path d="M303.043 7.045v51.853c0 2.78.105 5.625.317 8.534.209 2.909.838 5.545 1.892 7.904 1.05 2.36 2.716 4.278 4.986 5.752 2.272 1.477 5.47 2.213 9.594 2.213s7.3-.736 9.53-2.213c2.229-1.474 3.891-3.392 4.987-5.752 1.092-2.36 1.746-4.995 1.958-7.904.209-2.909.314-5.754.314-8.534V7.045h24.616V62.31c0 14.838-3.388 25.67-10.162 32.5-6.775 6.83-17.189 10.244-31.243 10.244-14.054 0-24.49-3.414-31.306-10.243-6.817-6.83-10.223-17.663-10.223-32.5V7.044h24.74Z" fill="#353ea3" fill-rule="evenodd" data-name="Path 198"/><path d="M422.711 28.039H393.3v15.934h27.77v20.992h-27.77v16.44h29.412v20.993h-54.154V7.046h54.154V28.04Z" fill="#353ea3" fill-rule="evenodd" data-name="Path 199"/><path d="M524.092 180.007c.442-11.594 5.225-20.083 14.511-25.926 1.519-.956 2-1.74 1.535-3.58-9.754-38.537-19.433-77.09-29.122-115.647-1.189-4.732-2.391-9.458-3.494-14.21-.358-1.543-1.006-2.182-2.697-2.295-6.138-.418-12.267-.992-18.386-1.628-4.215-.437-6.636-3.253-6.306-6.943.257-2.861 3.596-5.833 7.533-5.33 7.843.993 15.753 1.448 23.636 2.117 3.766.32 5.82 1.989 6.746 5.668a249360.93 249360.93 0 0 1 25.728 102.397c2.766 11.015 5.547 22.025 8.238 33.06.402 1.645 1.154 2.082 2.795 2.121 9.753.237 17.495 4.493 23.33 12.235.992 1.316 1.764 1.814 3.514 1.363 27.987-7.23 55.996-14.367 84.001-21.526 4.743-1.212 8.594 1.979 8.186 6.785-.216 2.534-1.65 4.257-4.159 4.9-27.46 7.04-54.924 14.072-82.39 21.098-3.547.908-3.552.883-3.428 4.42.523 14.842-11.162 28.555-25.748 30.214-16.063 1.827-30.52-8.429-33.336-23.695-.375-2.038-.51-4.119-.687-5.598m50.211-.014c.245-11.114-8.566-20.432-19.577-20.703-11.31-.277-20.734 8.487-21.004 19.532-.284 11.646 8.334 20.84 19.826 21.152 11.32.307 20.503-8.533 20.755-19.98" fill="#353ea3" fill-rule="evenodd" data-name="Path 200"/><path d="M554.339 213.908c-16.69 0-30.866-11.23-33.866-27.506-.298-1.61-.46-3.214-.585-4.501-.051-.494-.097-.956-.146-1.367l-.042-.346.014-.348c.484-12.707 5.854-22.492 15.965-29.095C526.96 116.3 518.303 81.84 509.645 47.38l-3.254-12.952c-.97-3.846-1.969-7.814-2.898-11.766-5.232-.376-10.798-.876-17.504-1.572-6.571-.683-10.774-5.496-10.22-11.7.23-2.558 1.634-5.05 3.857-6.842C482.042.6 485.176-.3 488.217.09c5.528.7 11.235 1.141 16.756 1.566 2.233.174 4.469.346 6.7.534 5.674.48 9.249 3.497 10.627 8.97 8.584 34.132 17.16 68.266 25.729 102.4l1.106 4.414c2.304 9.158 4.606 18.316 6.85 27.49 10.285.529 18.793 5.065 25.317 13.498 22.49-5.803 44.867-11.52 67.246-17.238l16.024-4.095c3.69-.944 7.327-.18 9.992 2.084 2.63 2.231 3.959 5.631 3.645 9.327-.373 4.401-3.154 7.684-7.439 8.784-27.465 7.038-54.927 14.072-82.394 21.098-.042.012-.087.022-.13.033.595 17.215-12.695 32.782-29.633 34.708-1.44.165-2.866.245-4.274.245m-25.852-34.06c.04.368.08.765.121 1.183.12 1.182.253 2.522.484 3.775 2.407 13.055 14.664 21.709 28.53 20.133 12.293-1.4 22.304-13.166 21.864-25.698-.198-5.596 1.167-7.406 6.644-8.808 27.542-7.047 55.005-14.078 82.468-21.117.687-.176.819-.329.876-1.02.072-.839-.133-1.506-.575-1.882-.478-.404-1.267-.502-2.158-.276l-16.028 4.096c-22.66 5.79-45.32 11.579-67.965 17.43-4.907 1.269-7.314-1.922-8.105-2.97-5.168-6.86-11.69-10.29-19.938-10.492-4.663-.112-6.352-3.035-6.948-5.468-2.328-9.55-4.725-19.083-7.121-28.615l-1.11-4.416c-8.57-34.134-17.144-68.268-25.726-102.396-.436-1.734-.82-2.192-2.864-2.365-2.211-.188-4.424-.358-6.636-.528-5.627-.434-11.442-.884-17.184-1.613-1.492-.191-2.535.973-2.62 1.391-.041.503-.166 1.894 2.396 2.16 7.102.739 12.896 1.253 18.233 1.617 3.556.24 5.863 2.206 6.668 5.68.976 4.208 2.055 8.49 3.096 12.63l3.258 12.957c8.726 34.735 17.453 69.468 26.239 104.187 1.357 5.353-2.262 7.63-3.45 8.378-8.027 5.051-11.99 12.063-12.449 22.046m25.64 24.527c-.232 0-.465-.004-.695-.009-13.85-.378-24.431-11.643-24.09-25.649.16-6.535 2.916-12.616 7.762-17.123 4.815-4.477 11.062-6.89 17.731-6.69 13.45.328 24.15 11.629 23.851 25.188-.147 6.749-2.866 12.982-7.653 17.547-4.57 4.36-10.55 6.736-16.906 6.736m.077-40.698c-4.168 0-8.107 1.537-11.137 4.354-3.098 2.88-4.86 6.752-4.961 10.9-.227 9.248 6.466 16.409 15.561 16.655 4.278.126 8.286-1.412 11.321-4.307 3.086-2.942 4.837-6.985 4.935-11.382.192-8.729-6.672-16.002-15.304-16.215a16.257 16.257 0 0 0-.415-.005" fill="#353ea3" fill-rule="evenodd" data-name="Path 201"/><path d="m551.604 104.58 75.55-19.212 13.14 51.792c-2.88.783-5.669 1.584-8.481 2.299-16.005 4.071-32.025 8.088-48.014 12.217-1.925.497-3.114.3-4.512-1.307-4.286-4.928-9.772-7.88-16.249-8.903-1.183-.186-2.228-.265-2.617-1.844-2.85-11.557-5.796-23.088-8.817-35.042" fill="#353ea3" fill-rule="evenodd" data-name="Path 202"/><path d="m550.305 99.481-9.97-39.345 54.339-13.828 9.974 39.357-54.343 13.816" fill="#353ea3" fill-rule="evenodd" data-name="Path 203"/><path d="m531.775 26.076 40.386-10.268 7.409 29.226c-13.555 3.452-26.82 6.827-40.381 10.28l-7.414-29.238" fill="#353ea3" fill-rule="evenodd" data-name="Path 204"/><path d="M541.875 179.679c.028 6.743 5.565 12.307 12.168 12.231 6.67-.075 12.23-5.65 12.244-12.277.014-6.637-5.584-12.168-12.285-12.137-6.827.032-12.155 5.385-12.127 12.183" fill="#353ea3" fill-rule="evenodd" data-name="Path 205"/><path d="M541.875 179.679c-.028-6.798 5.3-12.151 12.127-12.183 6.701-.031 12.3 5.5 12.285 12.137-.014 6.627-5.573 12.202-12.244 12.277-6.603.076-12.14-5.488-12.168-12.231" fill="#353ea3" fill-rule="evenodd" data-name="Path 206"/></g><defs><clipPath id="a"><path d="M0 0h721.207v215H0V0z" data-name="Rectangle 402"/></clipPath></defs></svg>