<svg xmlns="http://www.w3.org/2000/svg" width="76" height="75" viewBox="607 3936.95 76 75"><g data-name="Group 844"><path d="M607 3974.4a38 37.5 0 1 1 0 .1z" fill="#fff" fill-rule="evenodd" data-name="Ellipse 32"/><g data-name="Group 206"><g data-name="Group 205" transform="translate(609.94 3939.536)" clip-path="url(&quot;#a&quot;)"><path d="M35.087 0C15.71 0 0 15.71 0 35.087c0 19.378 15.71 35.087 35.087 35.087 19.379 0 35.088-15.709 35.088-35.087C70.175 15.71 54.465 0 35.087 0M52.77 31.599s-6.29-.258-9.598-3.285v13.64a12.885 12.885 0 0 1-.095 2.198c-.917 7.058-7.382 12.037-14.441 11.12-7.059-.917-12.038-7.383-11.12-14.442.917-7.058 7.382-12.037 14.441-11.12v7.336a5.692 5.692 0 1 0 4.033 5.446V14.793h7.178v.061c.012.793.305 9.24 9.602 9.633V31.6Z" fill="#353ea3" fill-rule="evenodd" data-name="Path 244"/></g></g></g><defs><clipPath id="a"><path d="M0 0h70.174v70.174H0V0z" data-name="Rectangle 422"/></clipPath></defs></svg>