<svg xmlns="http://www.w3.org/2000/svg" width="251" height="122.189" viewBox="1426 5490.811 251 122.189"><g data-name="Trustpilot Logo"><g data-name="Trustpilot_ratings_4halfstar-RGB"><g data-name="Group 187"><path d="M1426 5566h47v47h-47v-47z" fill="#00b67a" fill-rule="evenodd" data-name="Rectangle-path"/><path d="M1477 5566h47v47h-47v-47z" fill="#00b67a" fill-rule="evenodd" data-name="Rectangle 412"/><path d="M1528 5566h47v47h-47v-47z" fill="#00b67a" fill-rule="evenodd" data-name="Rectangle 413"/><path d="M1579 5566h47v47h-47v-47z" fill="#00b67a" fill-rule="evenodd" data-name="Rectangle 414"/><g data-name="Half"><path d="M1653 5566h24v47h-24v-47z" fill="#dcdce6" fill-rule="evenodd" data-name="Rectangle 415"/><path d="M1630 5566h23v47h-23v-47z" fill="#00b67a" fill-rule="evenodd" data-name="Rectangle 416"/></g><path d="m1449.319 5597.641 7.164-1.815 2.993 9.225-10.157-7.41Zm16.487-11.923h-12.61l-3.877-11.875-3.877 11.875h-12.61l10.206 7.36-3.876 11.875 10.206-7.36 6.28-4.515 10.158-7.36Z" fill="#fff" fill-rule="evenodd" data-name="Shape"/><path d="m1500.35 5597.641 7.165-1.815 2.993 9.225-10.157-7.41Zm16.488-11.923h-12.61l-3.877-11.875-3.877 11.875h-12.61l10.206 7.36-3.876 11.875 10.206-7.36 6.28-4.515 10.158-7.36Z" fill="#fff" fill-rule="evenodd" data-name="Path 229"/><path d="m1551.383 5597.641 7.164-1.815 2.993 9.225-10.157-7.41Zm16.487-11.923h-12.61l-3.877-11.875-3.877 11.875h-12.61l10.206 7.36-3.876 11.875 10.206-7.36 6.28-4.515 10.158-7.36Z" fill="#fff" fill-rule="evenodd" data-name="Path 230"/><path d="m1602.415 5597.641 7.164-1.815 2.993 9.225-10.157-7.41Zm16.487-11.923h-12.61l-3.877-11.875-3.877 11.875h-12.61l10.206 7.36-3.877 11.875 10.207-7.36 6.28-4.515 10.158-7.36Z" fill="#fff" fill-rule="evenodd" data-name="Path 231"/><path d="m1653.447 5597.641 7.164-1.815 2.993 9.225-10.157-7.41Zm16.487-11.923h-12.61l-3.877-11.875-3.877 11.875h-12.61l10.206 7.36-3.877 11.875 10.207-7.36 6.28-4.515 10.158-7.36Z" fill="#fff" fill-rule="evenodd" data-name="Path 232"/></g></g><g data-name="brandmark_gr-wht.474d91a"><g data-name="Type"><g data-name="Group 189"><path d="M1491.951 5512.654h25.41v4.741h-9.99v26.651h-5.495v-26.65h-9.947v-4.742Zm24.325 8.663h4.696v4.386h.089c.155-.62.443-1.219.864-1.795.42-.576.93-1.13 1.529-1.595a8.147 8.147 0 0 1 1.993-1.174 6.1 6.1 0 0 1 2.238-.443c.576 0 .997.022 1.218.045.222.022.443.066.687.088v4.83c-.354-.067-.709-.111-1.085-.155a9.2 9.2 0 0 0-1.086-.067c-.842 0-1.64.177-2.393.51-.753.332-1.395.841-1.949 1.484-.554.664-.997 1.462-1.33 2.437-.332.975-.487 2.082-.487 3.345v10.81h-5.006v-22.706Zm36.332 22.73h-4.918v-3.169h-.089c-.62 1.152-1.529 2.06-2.747 2.747-1.219.687-2.46 1.041-3.722 1.041-2.99 0-5.162-.73-6.49-2.215-1.33-1.484-1.995-3.722-1.995-6.713v-14.421h5.007v13.934c0 1.994.377 3.412 1.152 4.231.753.82 1.839 1.241 3.212 1.241 1.064 0 1.928-.155 2.637-.487.708-.333 1.284-.754 1.705-1.307.443-.532.754-1.197.953-1.95.2-.753.288-1.573.288-2.459v-13.181h5.007v22.707Zm8.529-7.29c.155 1.463.709 2.482 1.661 3.08.975.576 2.127.886 3.478.886.466 0 .997-.044 1.595-.11a6.699 6.699 0 0 0 1.684-.422c.532-.199.953-.51 1.307-.908.332-.399.488-.908.465-1.55-.022-.643-.265-1.175-.709-1.574-.443-.42-.996-.73-1.683-.997a16.898 16.898 0 0 0-2.348-.642c-.887-.177-1.773-.377-2.681-.576a25.44 25.44 0 0 1-2.703-.753 8.252 8.252 0 0 1-2.326-1.196 5.261 5.261 0 0 1-1.64-1.906c-.42-.775-.62-1.728-.62-2.88 0-1.24.31-2.26.909-3.101.598-.842 1.373-1.507 2.282-2.016.93-.51 1.95-.864 3.079-1.086 1.13-.199 2.215-.31 3.234-.31 1.174 0 2.304.133 3.368.377 1.063.244 2.038.642 2.902 1.218.864.554 1.573 1.285 2.149 2.171.576.886.93 1.972 1.085 3.235h-5.228c-.244-1.197-.775-2.016-1.64-2.415-.863-.42-1.86-.62-2.968-.62-.354 0-.775.022-1.263.088-.487.067-.93.178-1.373.333-.421.155-.776.398-1.086.709-.288.31-.443.708-.443 1.218 0 .62.222 1.108.643 1.484.42.377.974.687 1.661.953.687.244 1.462.465 2.348.642.887.178 1.795.377 2.725.576.909.2 1.795.466 2.68.754a8.091 8.091 0 0 1 2.35 1.196c.686.51 1.24 1.13 1.66 1.883.422.753.643 1.706.643 2.813 0 1.352-.31 2.482-.93 3.434a7.364 7.364 0 0 1-2.393 2.282 11.25 11.25 0 0 1-3.279 1.285 16.451 16.451 0 0 1-3.566.399c-1.44 0-2.77-.155-3.988-.488-1.218-.332-2.282-.82-3.168-1.462a7.25 7.25 0 0 1-2.105-2.459c-.51-.975-.775-2.149-.82-3.5h5.052v-.044Zm16.526-15.44h3.789v-6.824h5.006v6.824h4.52v3.743h-4.52v12.14c0 .532.022.975.067 1.374.044.377.155.71.31.975.155.266.399.465.731.598.332.133.753.2 1.33.2.354 0 .708 0 1.063-.023a5.868 5.868 0 0 0 1.063-.155v3.877c-.554.067-1.108.11-1.617.177-.532.067-1.064.089-1.618.089-1.329 0-2.392-.133-3.19-.377-.797-.243-1.44-.62-1.883-1.107-.465-.488-.753-1.086-.93-1.817a13.657 13.657 0 0 1-.288-2.503v-13.403h-3.788v-3.788h-.045Zm16.86 0h4.74v3.079h.089c.709-1.33 1.683-2.26 2.946-2.836 1.263-.576 2.614-.864 4.099-.864 1.794 0 3.345.31 4.674.953a9.136 9.136 0 0 1 3.323 2.592c.886 1.107 1.529 2.392 1.972 3.854.443 1.463.664 3.036.664 4.697 0 1.529-.2 3.013-.598 4.43-.399 1.44-.997 2.703-1.794 3.811-.798 1.108-1.817 1.972-3.058 2.636-1.24.665-2.68.997-4.364.997-.73 0-1.462-.066-2.193-.199a9.655 9.655 0 0 1-2.105-.642 7.599 7.599 0 0 1-1.86-1.13 7.019 7.019 0 0 1-1.44-1.595h-.09v11.342h-5.006v-31.125Zm17.5 11.386c0-1.019-.132-2.016-.398-2.99a8.066 8.066 0 0 0-1.197-2.57 6.095 6.095 0 0 0-1.971-1.795 5.527 5.527 0 0 0-2.725-.686c-2.105 0-3.7.73-4.763 2.193-1.063 1.462-1.595 3.412-1.595 5.848 0 1.152.133 2.216.42 3.19.289.975.688 1.817 1.264 2.526a5.978 5.978 0 0 0 1.993 1.662c.776.42 1.684.62 2.703.62 1.152 0 2.105-.244 2.902-.709a6.128 6.128 0 0 0 1.95-1.817 7.55 7.55 0 0 0 1.107-2.547c.2-.953.31-1.928.31-2.925Zm8.84-20.049h5.007v4.741h-5.007v-4.74Zm0 8.663h5.007v22.73h-5.007v-22.73Zm9.482-8.663h5.006v31.392h-5.006v-31.392Zm20.359 32.012c-1.817 0-3.434-.31-4.852-.908a10.712 10.712 0 0 1-3.611-2.481c-.975-1.063-1.728-2.326-2.238-3.788-.509-1.463-.775-3.08-.775-4.83 0-1.728.266-3.323.775-4.785.51-1.462 1.263-2.725 2.238-3.788.975-1.064 2.193-1.883 3.611-2.482 1.418-.598 3.035-.908 4.852-.908 1.816 0 3.433.31 4.851.908a10.712 10.712 0 0 1 3.611 2.482c.975 1.063 1.728 2.326 2.238 3.788.51 1.462.775 3.057.775 4.785 0 1.75-.266 3.367-.775 4.83-.51 1.462-1.263 2.725-2.238 3.788-.974 1.063-2.193 1.883-3.61 2.481-1.419.598-3.036.908-4.852.908Zm0-3.965c1.107 0 2.082-.244 2.902-.709a6.176 6.176 0 0 0 2.016-1.839c.531-.753.908-1.617 1.174-2.57a11.76 11.76 0 0 0 .377-2.924c0-.975-.133-1.927-.377-2.902a7.58 7.58 0 0 0-1.174-2.57 6.112 6.112 0 0 0-2.016-1.816c-.82-.466-1.795-.71-2.902-.71-1.108 0-2.083.244-2.902.71a6.362 6.362 0 0 0-2.016 1.816c-.532.753-.909 1.595-1.175 2.57a11.856 11.856 0 0 0-.376 2.902c0 .997.133 1.972.376 2.924a7.779 7.779 0 0 0 1.175 2.57 6.176 6.176 0 0 0 2.016 1.839c.82.487 1.794.709 2.902.709Zm12.937-19.384h3.789v-6.824h5.006v6.824h4.52v3.743h-4.52v12.14c0 .532.022.975.067 1.374.044.377.155.71.31.975.155.266.399.465.731.598.332.133.753.2 1.33.2.354 0 .708 0 1.063-.023a5.87 5.87 0 0 0 1.063-.155v3.877c-.554.067-1.108.11-1.617.177-.532.067-1.064.089-1.617.089-1.33 0-2.393-.133-3.19-.377-.798-.243-1.44-.62-1.884-1.107-.465-.488-.753-1.086-.93-1.817a13.662 13.662 0 0 1-.288-2.503v-13.403h-3.788v-3.788h-.045Z" fill="#fff" fill-rule="evenodd" data-name="Path 233"/></g></g><g data-name="Star"><path d="M1486.103 5512.654h-22.951l-7.09-21.843-7.11 21.843-22.952-.022 18.587 13.514-7.111 21.821 18.586-13.491 18.565 13.491-7.09-21.821 18.566-13.492Z" fill="#00b67a" fill-rule="evenodd" data-name="Path 234"/><path d="m1469.133 5531.086-1.595-4.94-11.476 8.33 13.071-3.39Z" fill="#005128" fill-rule="evenodd" data-name="Path 235"/></g></g></g></svg>