<svg xmlns="http://www.w3.org/2000/svg" width="76" height="75" viewBox="520.999 3936.95 76 75"><g data-name="Group 842"><path d="M521 3974.4a38 37.5 0 1 1 0 .1z" fill="#fff" fill-rule="evenodd" data-name="Ellipse 28"/><g data-name="Group 202"><g data-name="Group 201" transform="translate(523.73 3939.234)" clip-path="url(&quot;#a&quot;)"><path d="M43.998 21.501a16.29 16.29 0 0 0-8.685-2.505 16.205 16.205 0 0 0-11.534 4.778 16.205 16.205 0 0 0-4.777 11.534c0 3.275.971 6.439 2.808 9.15l.348.513-1.315 5.072 5.298-1.236.484.305A16.207 16.207 0 0 0 38.93 51.21a16.203 16.203 0 0 0 10.186-7.217c4.79-7.612 2.493-17.702-5.119-22.492m.009 23.46c-2.473 1.159-7.636.554-13.076-4.101-5.44-4.656-6.835-9.664-6.071-12.286.763-2.623 3.763-3.107 4.329-2.982.565.125 3.395 4.61 3.01 5.134-.386.524-2.249 2.386-2.249 2.386s-.078 1.906 3.419 4.898c3.496 2.993 5.367 2.621 5.367 2.621s1.553-2.129 2.01-2.59c.457-.46 5.326 1.642 5.538 2.182.21.54.195 3.578-2.277 4.737" fill="#353ea3" fill-rule="evenodd" data-name="Path 241"/><path d="M35.31 0C15.809 0 0 15.809 0 35.31c0 19.5 15.809 35.31 35.31 35.31 19.501 0 35.31-15.81 35.31-35.31C70.62 15.809 54.81 0 35.31 0m16.127 45.453a18.927 18.927 0 0 1-11.898 8.43c-1.404.32-2.838.482-4.263.482-3.368 0-6.687-.91-9.615-2.632l-8.609 2.01 2.145-8.274a19.005 19.005 0 0 1-2.936-10.16c0-5.09 1.981-9.874 5.58-13.473a18.928 18.928 0 0 1 13.472-5.582 19.03 19.03 0 0 1 10.145 2.927c4.3 2.706 7.291 6.932 8.422 11.9 1.13 4.967.263 10.071-2.443 14.372" fill="#353ea3" fill-rule="evenodd" data-name="Path 242"/></g></g></g><defs><clipPath id="a"><path d="M0 0h70.62v70.62H0V0z" data-name="Rectangle 420"/></clipPath></defs></svg>